<svg id="Capa_1" data-name="Capa 1" xmlns="http://www.w3.org/2000/svg" viewBox="0 0 496.79 463.72"><title>Mesa de trabajo 91</title><polygon points="197.73 302.44 203.5 389.93 229.9 390.59 235.41 303.38 197.73 302.44" fill="#ffcb39"/><path d="M203.18,385.13,230.56,381l-1.51,37.44s28.53,7.66,40,10.56-6.28,12.5-17.25,10.27c-16.76-3.41-29-.89-40.45-1.09a8.13,8.13,0,0,1-8-7.86Z" fill="#fb9159"/><rect x="203.28" y="387.15" width="27.32" height="0.75" transform="translate(-64.74 44.17) rotate(-10.12)"/><rect x="209.6" y="393.17" width="0.75" height="22.58" transform="translate(-20.78 11.49) rotate(-2.99)"/><rect x="217.12" y="392.73" width="0.75" height="22.35" transform="translate(-24.13 13.95) rotate(-3.48)"/><rect x="224.05" y="392.16" width="0.75" height="23.08" transform="translate(-20.08 11.83) rotate(-2.89)"/><path d="M201.23,436.15l74-.09h0c.13-8.41-10-11.5-18.6-12.32L231,417l1-17.73L202.8,397.5Z" fill="#6562be"/><path d="M201.36,435.62s-1.19,12.54,3.66,8.44,7-5.83,9.17-3.81,5.93,5.35,7.82,1.77,3.6,2,9.62.77,4.09-4.35,5.86-3.84-.21,6.65,5.23,4.35,4.35-5.63,7.32-4.61,5.93,8.23,11.59,1.56,5.93,8.27,9.17,4.63,4.39-9.17,4.39-9.17Z" fill="#fe4877"/><rect x="161.76" y="45.21" width="312.96" height="206.29" fill="#ffcb39"/><rect x="161.76" y="45.21" width="312.96" height="28.05" fill="#161730"/><rect x="190.72" y="90.33" width="98.64" height="45.35" rx="7.45" fill="#fe4877"/><rect x="308.89" y="117.44" width="19.2" height="18.36" rx="2.09" fill="#fe4877"/><rect x="348.16" y="117.44" width="19.2" height="18.36" rx="2.09" fill="#6562be"/><rect x="386.96" y="117.44" width="19.2" height="18.36" rx="2.09" fill="#fe4877"/><rect x="426.23" y="117.44" width="19.2" height="18.36" rx="2.09" fill="#fe4877"/><rect x="230.82" y="147.06" width="19.2" height="18.36" rx="2.09" fill="#fe4877"/><rect x="269.62" y="147.06" width="19.2" height="18.36" rx="2.09" fill="#fe4877"/><rect x="308.89" y="147.06" width="19.2" height="18.36" rx="2.09" fill="#fe4877"/><rect x="348.48" y="147.06" width="19.2" height="18.36" rx="2.09" fill="#fe4877"/><rect x="387.29" y="147.06" width="19.2" height="18.36" rx="2.09" fill="#fe4877"/><rect x="426.55" y="147.06" width="19.2" height="18.36" rx="2.09" fill="#fe4877"/><rect x="426.55" y="176.52" width="19.2" height="18.36" rx="2.09" fill="#fe4877"/><rect x="191.55" y="147.06" width="19.2" height="18.36" rx="2.09" fill="#fe4877"/><rect x="191.55" y="176.52" width="19.2" height="18.36" rx="2.09" fill="#fe4877"/><rect x="230.82" y="176.52" width="19.2" height="18.36" rx="2.09" fill="#161730"/><rect x="269.62" y="176.52" width="19.2" height="18.36" rx="2.09" fill="#6562be"/><rect x="308.89" y="176.52" width="19.2" height="18.36" rx="2.09" fill="#fe4877"/><rect x="348.48" y="176.52" width="19.2" height="18.36" rx="2.09" fill="#fe4877"/><rect x="387.29" y="176.52" width="19.2" height="18.36" rx="2.09" fill="#161730"/><rect x="191.55" y="205.97" width="19.2" height="18.36" rx="2.09" fill="#fe4877"/><rect x="230.82" y="205.97" width="19.2" height="18.36" rx="2.09" fill="#fe4877"/><rect x="269.62" y="205.97" width="19.2" height="18.36" rx="2.09" fill="#fe4877"/><rect x="308.89" y="205.97" width="19.2" height="18.36" rx="2.09" fill="#161730"/><path d="M313.93,183.82c1.4,0,5.14,5.15,5.14,5.15l14-19.17" fill="none" stroke="#161730" stroke-miterlimit="10" stroke-width="3.28"/><path d="M431.74,124.45c1.4,0,5.14,5.14,5.14,5.14l14-19.16" fill="none" stroke="#161730" stroke-miterlimit="10" stroke-width="3.28"/><rect x="183.03" y="19.27" width="16.83" height="38.33" rx="8.41" fill="#6562be"/><rect x="213.42" y="19.27" width="16.83" height="38.33" rx="8.41" fill="#6562be"/><rect x="403.69" y="19.27" width="16.83" height="38.33" rx="8.41" fill="#6562be"/><rect x="434.07" y="19.27" width="16.83" height="38.33" rx="8.41" fill="#6562be"/><polygon points="30.39 396.24 16.75 396.24 16.75 335.21 31.34 335.21 31.34 339.21 20.75 339.21 20.75 392.24 30.39 392.24 30.39 396.24" fill="#ffcb39"/><rect x="28.02" y="294.25" width="120.24" height="142.57" rx="12.59" fill="#6562be"/><rect x="47.86" y="294.25" width="12.48" height="142.57" fill="#ffcb39"/><rect x="115.86" y="294.25" width="12.48" height="142.57" fill="#ffcb39"/><polygon points="227.39 265.58 250.71 264.49 250.29 268.63 227.29 269.38 227.2 272.6 247.2 272 247.4 276.33 227.08 276.91 226.23 276.94 223.42 276.86 203.22 276.31 153.16 267.64 122.01 206.19 151.28 195.81 169.77 247.55 200.72 253.94 215.26 253.06 229.75 239.93 233.29 241.22 220.91 252.78 226.03 253.02 249.51 252.69 249.68 256.46 227.63 256.63 227.57 258.92 250.58 258.91 251.2 262.48 227.46 262.83 227.39 265.58" fill="#fb9159"/><path d="M116.56,167.61h35.06a0,0,0,0,1,0,0v36.81A16.58,16.58,0,0,1,135,221h-1.89a16.58,16.58,0,0,1-16.58-16.58V167.61a0,0,0,0,1,0,0Z" transform="translate(332.83 321.74) rotate(157.28)" fill="#fe4877"/><polygon points="199.4 220.33 199.4 220.36 198.84 220.35 199.4 220.33" fill="#ffcb39"/><path d="M240.33,349.66c3.53,10.83-2.33,24.26-2.33,24.26l-38.51,3.74c3-11.57,1.64-23.51-3.39-31.15s-2.95-5.8-3-26.32c0-6.63-2.34-11.2-5.48-14.34-6.57-6.58-16.73-6.93-16.73-6.93-11.55-3-21.14,3.25-36.7-7.09-12-8-1.93-40-1.93-40s16.63-1.24,59.64,2.48A79.9,79.9,0,0,1,202,255.83h0l.14,0c13.22,3.25,22.13,9.18,28.09,16.19l.1.12c15.65,18.55,10.72,44.51,10,48C239.38,325,236.81,338.85,240.33,349.66Z" fill="#161730"/><polygon points="150.2 303.42 155.97 390.91 182.37 391.57 187.88 304.37 150.2 303.42" fill="#ffcb39"/><path d="M107.33,164.69c-.54.17-1,.35-1.54.54-10.11,4.09-15.39,20.85-18.35,32.13-1.67,6.37-5.08,59.47-5.08,59.47s81.6,0,81.61,0c2.22,7.78-5.41-41.13-5.94-43.44-4.22-18.35-11.89-42-28.37-47.83C123.63,163.42,113.86,162.74,107.33,164.69Z" fill="#161730"/><path d="M147.83,135.45l-3.58,16.43A11.14,11.14,0,0,1,131,160.39l-.65,0c-.15.67-.29,1.34-.44,2-.35,1.62-.71,3.25-1.06,4.87-.23,1-.07,2.33-.9,3.15a6.25,6.25,0,0,1-3,1.25c-2.9.59-8.78-.74-7.88-4.9l3-13.68,3.56-22.88Z" fill="#fb9159"/><path d="M146.19,140.2c1.56.34,2.85,11.25,2.85,11.25l-5.07-1.1Z" fill="#ff534a"/><circle cx="134.47" cy="147.05" r="3.99" fill="#ff534a"/><path d="M133.9,134.66s2-1.82,6,.5a24.54,24.54,0,0,0,11.56,3.09,10.64,10.64,0,0,0,6.14-1.58,11.77,11.77,0,0,0,4.25-5.09,5.29,5.29,0,0,0,.17-3.87,5.1,5.1,0,0,0-2.94-2.78c-2.61-1-5.84-.59-8.41.32a19.35,19.35,0,0,1-3.66.89c-2.36.36-4.76.44-7.13.73a22.28,22.28,0,0,1-5.59.26c-.56-.07-1.43-.16-1.73-.73-.17-.32.09-.68,0-.94s.06-.37-.3-.35c-2.74.21-6.61-.71-9.11.67-3.72,2-11.41,10.73-2.61,19.46l11.14-9.84-5.2,24s7.91,7.68,14.36,6.23c4.38-1,1.63-6.62,3-11.22.52-1.7,1.14-3-.6-3.4l-2.14-.47a3,3,0,0,0-3.13,1.29c-2.09,3.24-6.42,9.31-5.65,2.93C133.38,146.4,133.9,134.66,133.9,134.66Z" fill="#6562be"/><circle cx="125.33" cy="141.17" r="4.59" fill="#fb9159"/><path d="M126.53,141.45a3.69,3.69,0,0,1-.12,2.41l-.71-.24a2.59,2.59,0,0,0,0-2.29,2.51,2.51,0,0,0-1.68-.94l.07-.74a3.23,3.23,0,0,1,2.11,1.09,2.29,2.29,0,0,0,.5-1.56.7.7,0,0,0-.21-.39l.38-.64a1.36,1.36,0,0,1,.56.84,3.28,3.28,0,0,1-.82,2.48Z" fill="#0c0604"/><path d="M138.67,139.86a.41.41,0,0,1,.14-.12,1.6,1.6,0,0,1,.84-.15c1.28,0,4.58-.07,4.63,1.83.05,1.52-1.93.85-3,.58S137.64,141,138.67,139.86Z" fill="#fff"/><path d="M142.51,139.81s-1.42.59-.51,2.38c0,0,2.33.88,2.28-.77A1.69,1.69,0,0,0,142.51,139.81Z" fill="#0c0604"/><path d="M137.82,139.19s6.8.67,6.89.28.82-1.87-.36-2.12-7.45.42-7.14.89S137.12,138.63,137.82,139.19Z" fill="#161730"/><path d="M143.55,152.3a5.84,5.84,0,0,1-1.42,4.6l-3.85-1.09S137.2,150.46,143.55,152.3Z" fill="#fb9159"/><path d="M142.27,155.36a3.15,3.15,0,0,1-3-1.71l.68-.33c.84,1.76,3.12,1.2,3.15,1.2l.18.72A4.11,4.11,0,0,1,142.27,155.36Z" fill="#0c0604"/><polygon points="152.13 147.81 151.39 147.65 152.87 140.88 126.23 137.18 126.33 136.44 153.77 140.25 152.13 147.81" fill="#161730"/><path d="M155.65,386.12,183,382l-1.51,37.44s28.53,7.65,40,10.56-6.28,12.49-17.25,10.26c-16.77-3.4-29-.88-40.45-1.09a8.13,8.13,0,0,1-8-7.86Z" fill="#6562be"/><rect x="155.75" y="388.13" width="27.32" height="0.75" transform="translate(-65.66 35.83) rotate(-10.12)"/><rect x="162.07" y="394.15" width="0.75" height="22.58" transform="translate(-20.89 9.01) rotate(-2.98)"/><rect x="169.58" y="393.71" width="0.75" height="22.35" transform="translate(-24.26 11.06) rotate(-3.48)"/><rect x="176.52" y="393.15" width="0.75" height="23.08" transform="translate(-20.18 9.43) rotate(-2.89)"/><path d="M155.82,421.89s20.73,5.59,23.32,16.74c0,0-19.38,5.11-22.92-5.23Z" fill="#fe4877"/><path d="M200.56,439.6s12.85-6.19,8-13l14,3.68s4.06.84,1.91,4.32S211.2,443.14,200.56,439.6Z" fill="#fe4877"/><path d="M126.38,116.43h3A13.66,13.66,0,0,1,143,130.08v2.14a0,0,0,0,1,0,0H112.72a0,0,0,0,1,0,0v-2.14a13.66,13.66,0,0,1,13.66-13.66Z" transform="translate(-33.87 49.16) rotate(-19.27)" fill="#ff534a"/><circle cx="124.26" cy="115.24" r="1.61" fill="#6562be"/><path d="M162.48,120.67a1.09,1.09,0,0,1-.76,1l-22.26,6.94h0l-5.27,1.84-5.66-14.61c10.68-1.72,14.52,5.45,15.75,9l16.83-5.25a1.08,1.08,0,0,1,1.35.71A1.19,1.19,0,0,1,162.48,120.67Z" fill="#ffcb39"/><rect x="115.47" y="132.86" width="4.48" height="1.4" transform="translate(-37.48 46.33) rotate(-19.27)" fill="#6562be"/><rect x="67.94" y="314.92" width="20.2" height="29.23" fill="#ffcb39"/><rect x="82.2" y="308.74" width="17.35" height="26.38" transform="translate(-201.03 158.55) rotate(-45)" fill="#fe4877"/><rect x="43.46" y="395.48" width="13.31" height="32.32" transform="translate(-100.55 25.3) rotate(-14.36)" fill="#fe4877"/><rect x="25.88" y="398.09" width="4.75" height="25.9" fill="#ffcc1e"/><rect x="25.81" y="304.88" width="4.75" height="25.9" fill="#ffcc1e"/><polygon points="266.55 208.46 248.5 216.96 244.68 218.76 228.2 226.51 225.97 227.56 182.19 248.03 121.49 215.45 139.56 190.19 184.32 222.05 213.49 209.55 226.85 201.38 233.51 182.99 237.25 182.47 231.72 198.48 236.36 196.3 236.42 196.27 256.95 185.01 258.86 188.26 239.47 198.73 240.49 200.79 260.8 190 263.02 192.88 242.22 204.29 243.44 206.76 263.53 194.87 265.1 198.74 245.13 210.17 246.6 213.13 264.17 204.3 266.55 208.46" fill="#fb9159"/><path d="M107.07,172.09h35.06a0,0,0,0,1,0,0V208.9a16.58,16.58,0,0,1-16.58,16.58h-1.89a16.58,16.58,0,0,1-16.58-16.58V172.09A0,0,0,0,1,107.07,172.09Z" transform="matrix(-0.54, 0.84, -0.84, -0.54, 359.21, 200.07)" fill="#fe4877"/><path d="M192.8,350.65c3.53,10.82-2.34,24.25-2.34,24.25l-7.08.69-28.24,2.73-3.18.31a47.27,47.27,0,0,0,1.18-18.11c0-.26-.07-.52-.11-.77a35.43,35.43,0,0,0-.88-4.1,28.53,28.53,0,0,0-3.58-8.16c-4.46-6.76-3.34-6.1-3-20.07,0-.35,0-.72,0-1.09,0-1.54,0-3.25,0-5.16a22.86,22.86,0,0,0-1-6.95,15.29,15.29,0,0,0-.59-1.61,17.77,17.77,0,0,0-3.84-5.75,19.2,19.2,0,0,0-2.3-2c-.22-.17-.44-.32-.66-.47a27.39,27.39,0,0,0-9.48-3.91l-.77-.15a25.57,25.57,0,0,0-3.55-.46c-11.55-3-21.14,3.25-36.71-7.09-12-8-1.92-39.95-1.92-39.95s16.62-1.25,59.64,2.47a80,80,0,0,1,10.06,1.49h0c13.07,3.18,21.95,9,27.91,15.87.21.24.42.47.61.71l.11.13.23.3c13.54,16.7,10.91,39,9.77,45.73-.12.72-.22,1.26-.29,1.6C191.85,326,189.28,339.83,192.8,350.65Z" fill="#fe4877"/><path d="M153.11,437.22l74-.1h0c.13-8.4-10-11.49-18.6-12.32L182.91,418l1-17.73-29.27-1.73Z" fill="#6562be"/><path d="M153.24,436.69s-1.19,12.53,3.66,8.44,7-5.83,9.17-3.81,5.93,5.35,7.82,1.77,3.6,2,9.62.76,4.09-4.34,5.86-3.83-.21,6.65,5.23,4.35,4.36-5.63,7.32-4.61,5.93,8.23,11.59,1.56,5.93,8.27,9.17,4.63,4.39-9.17,4.39-9.17Z" fill="#fe4877"/><path d="M315,383.5c2.65.37,10.84,1.94,14.9,7.52,0,0-13.91,4.63-15.64-6.69-9.31,10.8-6.55,21.2-6.51,21.33l-.72.21a20.29,20.29,0,0,1-.22-7.4c-2,.65-12.08,3.35-19.37-3.81,0,0,12.4-2.3,19.42,3.43.78-5.08,3.43-12,11.16-18.52-2-.92-11.84-6-11.41-14.74,0,0,12.05.8,11.76,14.45a48.65,48.65,0,0,1,4.5-3.31c6.61-4.32,9.59-7.27,9.67-9.59.08-2.1-2.18-3.81-5.3-6.18a43.16,43.16,0,0,1-9.53-9.1l.61-.44a42.21,42.21,0,0,0,9.38,8.94c3.17,2.41,5.68,4.32,5.59,6.81s-3.08,5.66-10,10.19l-.37.25c11-.54,13.54,5.86,13.54,5.86-5.08,2.74-12.42-3.5-14.37-5.3A42.06,42.06,0,0,0,315,383.5Z" fill="#ffcb39"/><path d="M319.72,332.54s-4.94,8.72-2.05,12.37S324.56,337.26,319.72,332.54Z" fill="#6562be"/><path d="M317.11,350.58s-4.94,8.72-2.05,12.37S322,355.3,317.11,350.58Z" fill="#6562be"/><path d="M314.59,348.31s-7.37-6.79-11.59-4.8S308.89,352,314.59,348.31Z" fill="#6562be"/><path d="M320.94,350s9.32,3.72,12.54.36S325,344.53,320.94,350Z" fill="#6562be"/><path d="M320.4,346.71s10-.58,11.51-5S321.75,340.09,320.4,346.71Z" fill="#6562be"/><path d="M315.39,350.61s-10-.61-12,3.6S313.27,357,315.39,350.61Z" fill="#6562be"/><path d="M319.86,351.52s2.73,9.65,7.36,10.16S326.62,351.41,319.86,351.52Z" fill="#6562be"/><path d="M316.51,345.63s-2.68-9.67-7.31-10.2S309.75,345.71,316.51,345.63Z" fill="#6562be"/><circle cx="317.84" cy="348.48" r="4.35" fill="#fe4877"/><path d="M332,403.26v7.25h-6.12V431.3a12.3,12.3,0,0,1-12.3,12.3H304a12.3,12.3,0,0,1-12.29-12.3V410.51h-4.94v-7.25Z" fill="#fb9159"/></svg>