<svg id="Capa_1" data-name="Capa 1" xmlns="http://www.w3.org/2000/svg" viewBox="0 0 402.33 480.48"><title>Mesa de trabajo 85</title><polygon points="265.2 263.27 316.56 235.62 302.3 210.44 271.41 224.69 265.2 263.27" fill="#ffcb39"/><path d="M162.21,205.17l16.25-3.11-.28,3.41L162.8,208.7l.48,2.79,14.12-2,.8,3.51-14.28,2.17-1.89.29-.75.1-14.06,1.78h0l-76.5,18.1c-6.8,1-13.88-5.41-15.81-14.42-1.82-8.48,1.56-16.19,7.61-17.95a10.35,10.35,0,0,1,1.2-.27l79.7-7.39h0l7.87-1.55,7.91-13.42,2.75.92-6.7,11.76,20.23-2.35.79,3.51-15.71,1.2.6,3.48,16.4-1.83.69,2.12-16.64,2.41Z" fill="#fd925a"/><path d="M144.4,188.88c.71,2.85,7.84,32.44,7.84,32.44l-63.44,21-3.57-39.21Z" fill="#ffcb39"/><path d="M101.46,136.46a2.12,2.12,0,0,1-.11.21c-.9,1.57-3.53,1.25-5,1.73-2,.62-4,1.23-5.92,1.86-.74.24-7.42,1.74-7.58,2.44-.73,3.17-1.48,6.34-2.21,9.5-.92,3.92-.94,7.58-3.1,11-.13.2-.25.39-.39.59-3.7,5.25-11.4,9.6-17.64,10.81-3,.58-6.17.13-9.21.72-7.55,1.48-14.8,5-21.66,8.44-.82.42-11.31,5.14-11.31,6l-1-5.61,19.05-11.45L16,182.48l-3.17-17.76,21.72-8.16-22.16,5.65L10.2,149.94l24.35-4.8-25.13.46L7.5,134.82a207.62,207.62,0,0,0,22.25,2.05c6.38.19,14.83,1.7,21.1.26,2.87-.65,5.13-2.5,7.3-4.38a29.85,29.85,0,0,1,19.71-6.86,35.71,35.71,0,0,1,10.23,1.43,47.75,47.75,0,0,1,7.73,2.77C97.62,131,102.7,133.73,101.46,136.46Z" fill="#ffcb39"/><polygon points="49.46 305.79 56.14 425.22 79.45 425.22 88.82 306.24 49.46 305.79" fill="#fd925a"/><path d="M52.21,457.78l71.68-.09h0c.13-8.41-9.66-11.5-18-12.32l-24.78-6.78,1-17.73-28.36-1.72Z" fill="#6562be"/><polygon points="76.95 445.94 76.43 445.39 83.21 438.97 83.72 439.51 76.95 445.94" fill="#ffcb39"/><rect x="83.33" y="444.28" width="8.69" height="0.75" transform="translate(-329.15 266.72) rotate(-55.73)" fill="#ffcb39"/><polygon points="92 449.84 91.32 449.51 94.87 442.29 95.55 442.62 92 449.84" fill="#ffcb39"/><path d="M87,393l-39.28-.6s-8.45-11.19-2-24.27,1.11-24.16-2.2-35.24-5.16-23.4.66-33.45,1.54-23-.43-30.75,1.67-21.31,1.67-21.31L94.6,262.77s3.46,47.76-1.68,57.14S88.6,350.69,89.43,360,94.58,382.21,87,393Z" fill="#161730"/><polygon points="89.83 316.14 144.81 423.8 163.93 415 126.17 301.01 89.83 316.14" fill="#fd925a"/><path d="M152.37,454.7l65.82-28.39h0c-3.2-7.77-13.41-6.75-21.43-4.2l-25.44,3.55L165.26,409l-26.75,9.62Z" fill="#6562be"/><path d="M158.76,381.46l-36.32,15s-12.19-6.94-11.4-21.51-8.52-22.64-15.94-31.51-14-19.46-12.59-31S74.82,290.61,70,284.32s-6.88-20.25-6.88-20.25l51.24-5.28s22,42.52,21,53.16,8.18,30,12.62,38.22S161.46,368.53,158.76,381.46Z" fill="#161730"/><path d="M89.29,172.51c.59.12,1.15.27,1.69.43,11.15,3.45,18.78,21.84,23.29,34.29,2.55,7,12.69,66.85,12.69,66.85l-86.5.72c-1.24,0,1.15-38.41,1.42-41.09,2.18-21.31,7.35-49.05,24-57.59C72,173,82.17,171.06,89.29,172.51Z" fill="#fe4877"/><path d="M97.48,155.45a10.39,10.39,0,0,1-10.34,10.44l-.61.09c0,.64,0,1.28,0,1.92l0,4.65c0,1,.4,2.14-.18,3a5.86,5.86,0,0,1-2.45,1.74c-2.52,1.12-8.15,1.11-8.17-2.86l-.06-13-1.4-21.56,23.1-.11Z" fill="#fd925a"/><path d="M96.87,144.42c1.49,0,4.89,9.66,4.89,9.66l-4.84,0Z" fill="#ff534a"/><circle cx="87.6" cy="153.03" r="3.73" fill="#ff534a"/><path d="M90,145.63a.42.42,0,0,1,.11-.13,1.37,1.37,0,0,1,.73-.31c1.17-.26,4.15-1,4.59.73.35,1.37-1.59,1.17-2.6,1.13S89.26,146.9,90,145.63Z" fill="#fff"/><path d="M93.45,144.81s-1.18.82,0,2.27c0,0,2.31.33,1.93-1.16A1.57,1.57,0,0,0,93.45,144.81Z" fill="#0c0604"/><path d="M89.05,145.2s6.33-.77,6.33-1.15.36-1.86-.75-1.85-6.7,1.89-6.33,2.26S88.3,144.83,89.05,145.2Z" fill="#161730"/><path d="M95.54,159.14a2.74,2.74,0,0,1-2.25-1.06l.59-.46c1.1,1.41,3.05.45,3.07.44l.34.67A4.18,4.18,0,0,1,95.54,159.14Z" fill="#0c0604"/><path d="M83,136.69l1.37,7.76,19.56-1.87s2.69-15.39-10-13.88S72.66,127.21,73.12,137l1.12,8.86,8.53-1.27Z" fill="#ffcb39"/><path d="M80.68,140.61s-1.32,18.2,2.78,23.63c0,0-2.81-15.15,1-26.88C84.47,137.36,76.1,128.14,80.68,140.61Z" fill="#ffcb39"/><circle cx="76.91" cy="147.08" r="4.28" fill="#fd925a"/><path d="M78.59,149.16l-.75-.08a2.39,2.39,0,0,0-.5-2.05,2.28,2.28,0,0,0-1.7-.5l-.09-.75a3.17,3.17,0,0,1,2,.43,1.78,1.78,0,0,0,0-1.23.5.5,0,0,0-.26-.3l.24-.71a1.22,1.22,0,0,1,.69.67,2.77,2.77,0,0,1-.12,2.13A3.37,3.37,0,0,1,78.59,149.16Z" fill="#0c0604"/><path d="M52.34,457.25s-1.16,12.54,3.55,8.45,6.79-5.84,8.88-3.82,5.75,5.35,7.58,1.77,3.49,2.05,9.32.77,4-4.35,5.68-3.84-.2,6.65,5.07,4.35,4.23-5.62,7.1-4.6,5.75,8.22,11.23,1.55,5.75,8.27,8.89,4.64,4.25-9.18,4.25-9.18Z" fill="#fe4877"/><path d="M151.87,453.36s3.85,12,6.59,6.37,4-8,6.7-7,7.4,2.65,7.68-1.36,4,.51,8.91-3,1.95-5.56,3.73-5.77,2.43,6.2,6.39,2,1.69-6.84,4.74-7,8.53,5.31,11-3,8.54,5.34,10,.77.33-10.12.33-10.12Z" fill="#fe4877"/><rect x="172.18" y="428.73" width="9.34" height="0.75" transform="translate(-282.92 492.49) rotate(-75.45)" fill="#ffcb39"/><polygon points="184.05 432.52 184.41 423.83 185.16 423.87 184.8 432.55 184.05 432.52" fill="#ffcb39"/><rect x="189.93" y="423.49" width="0.75" height="8.05" transform="translate(-41.81 21.18) rotate(-5.74)" fill="#ffcb39"/><circle cx="54.58" cy="258.47" r="9.25" fill="#ffcb39"/><circle cx="55.86" cy="237.41" r="1.8" fill="#ffcb39"/><circle cx="87.6" cy="260.58" r="5.98" fill="#ffcb39"/><circle cx="78.23" cy="247.4" r="1.83" fill="#ffcb39"/><circle cx="116.4" cy="263.19" r="2.93" fill="#ffcb39"/><circle cx="75.6" cy="231.57" r="2.04" fill="#ffcb39"/><circle cx="93.04" cy="182.79" r="4.68" fill="#ffcb39"/><circle cx="68.08" cy="181.11" r="1.69" fill="#ffcb39"/><circle cx="49.46" cy="218.82" r="1.74" fill="#ffcb39"/><polygon points="177.94 243.03 164.21 247.17 169.27 249.97 169.23 250.04 186.03 258.15 184.81 260.94 168.13 252.13 166.71 254.82 184.42 263.58 183.88 265.39 165.61 256.9 164.1 259.77 182.28 267.47 179.98 269.69 162.61 262.6 161.43 264.83 176.79 272.05 175.51 274.98 141.96 258.42 146.7 239.77 159.82 245.27 175.74 240.72 177.94 243.03" fill="#fd925a"/><path d="M154.36,236.55,145,264.71l-43.85-14.6-10-3.33-2.61-3.56-33.18-38.6a13.91,13.91,0,0,1,2.11-20.07,15.14,15.14,0,0,1,7.07-3.12,15,15,0,0,1,13.79,4.87l19.15,22.27,10.7,12.6,18.39,6.13Z" fill="#ffcb39"/><polygon points="359.95 401.89 332.49 404.58 334.87 448.57 359.13 447.15 359.95 401.89" fill="#fd925a"/><path d="M360.66,465.57l-64-.09h0c-.11-7.51,8.63-10.27,16.11-11l22.13-6.06L334,432.58,359.3,431Z" fill="#161730"/><rect x="336.84" y="448.13" width="0.75" height="8.98" transform="translate(-227.21 449.94) rotate(-53.04)" fill="#ffcb39"/><rect x="328.69" y="451.49" width="0.75" height="8.59" transform="translate(-229.79 394.93) rotate(-47.96)" fill="#ffcb39"/><rect x="319.95" y="452.15" width="0.75" height="7.82" transform="translate(-219.84 318.87) rotate(-40.67)" fill="#ffcb39"/><path d="M323.76,341.22c.14.36.28.68.42,1l.11.21a29.1,29.1,0,0,1,2.7,9l.12.79a100.74,100.74,0,0,1,.81,16.26c0,.26,0,.52,0,.77-.09,3.53-.29,6.68-.49,9-.5,5.63-2.43,12.71-1.52,19.69,0,.26.06.53.11.79a21.08,21.08,0,0,0,3.58,9l3.08,0,27.18-.41,4.83-.07s6.59-8.73,2.74-19.4l-.28-.72c-.21-.52-.44-1-.7-1.56-3.58-7.23-3.11-13.78-1.52-20.08.08-.32.16-.64.25-1,.95-3.54,2.21-7,3.24-10.45a75.62,75.62,0,0,0,1.88-7.51,49.89,49.89,0,0,0,.8-5.91h0l.06-1,0-.87a29.51,29.51,0,0,0-1.4-10.18q-.11-.35-.24-.69a23.67,23.67,0,0,0-1.72-3.69c-2.6-4.48-2.95-9.62-2.42-14.49,0-.25.05-.49.09-.74a57.72,57.72,0,0,1,1-5.73c.56-2.42,1.19-4.63,1.67-6.5,1.75-6.88-1.49-19-1.49-19l-2,.61-7,2.19h0l-4.53,1.41-16.17,5.06-.29.09-.28.09h0l-1.7.53-2.66.83-1.33.42-2.45.76-.15.05-5.4,1.69s-.2,2.8-.43,7.1c0,.37,0,.75-.06,1.15,0,.16,0,.32,0,.49-.18,3.69-.36,8.22-.45,13,0,.27,0,.55,0,.82,0,.79,0,1.58,0,2.38C321.69,326.27,322.08,336.55,323.76,341.22Z" fill="#161730"/><polygon points="269.16 395.97 244.02 384.62 224.15 423.94 245.89 434.8 269.16 395.97" fill="#fd925a"/><path d="M238,451.53l-55.47-32h0c3.64-6.56,12.6-4.6,19.44-1.51l22.21,5.79,7.11-14.18,22.74,11.29Z" fill="#161730"/><rect x="223.79" y="424.13" width="0.75" height="8.98" transform="translate(-150.51 122.7) rotate(-23.16)" fill="#ffcb39"/><rect x="215.15" y="423" width="0.75" height="8.59" transform="translate(-121.83 87.85) rotate(-18.06)" fill="#ffcb39"/><rect x="207.44" y="419.27" width="0.75" height="7.82" transform="translate(-75.7 46.5) rotate(-10.81)" fill="#ffcb39"/><path d="M239.94,385.89l2.69,1.49,23.77,13.19,4.22,2.34a22.47,22.47,0,0,0,6.84-5.07,6.91,6.91,0,0,0,.51-.57,20.49,20.49,0,0,0,3.49-5.64,17.8,17.8,0,0,0,.71-2h0A20.92,20.92,0,0,0,283,385a24.38,24.38,0,0,1,.3-2.65c0-.3.09-.6.15-.89,1.72-8.82,7.56-14.24,13.37-19.49L298,360.9c.81-.73,1.61-1.47,2.4-2.21.38-.36.76-.72,1.13-1.09h0c.37-.35.73-.71,1.09-1.07a47.83,47.83,0,0,0,9.78-13.45c.31-.69.6-1.38.85-2.09a24.5,24.5,0,0,0,1.53-8.49c0-6.29,3.31-11.76,7.05-16.23,1-1.22,2.07-2.37,3.09-3.44h0l.92-1h0c1.06-1.09,2.07-2.09,2.95-3a18.18,18.18,0,0,0,2.39-3.15,40.09,40.09,0,0,0,2.51-4.83c.32-.72.62-1.43.89-2.12h0c.4-1,.75-2,1.06-2.84.87-2.5,1.35-4.3,1.35-4.3l-.73-.16-2.31-.52-2-.45h0l-.94-.2-2.66-.6h0l-.1,0-36.14-8s-3.35,4.95-7.55,11.65c-1.84,2.94-3.84,6.21-5.81,9.55-.12.22-.25.44-.38.65-2.47,4.25-4.85,8.56-6.71,12.41l-.39.82c-2,4.17-3.26,7.72-3.3,9.91a23,23,0,0,1-1,5.79c-.1.34-.2.68-.31,1a88.22,88.22,0,0,1-8.29,17.18l-.57,1c-1.86,3.06-3.63,5.73-5,7.66-1.8,2.58-4.2,5.32-6.46,8.37h0c-.18.25-.37.5-.55.76C242.25,373.26,239.31,378.93,239.94,385.89Z" fill="#161730"/><path d="M361.1,465.18l-64.46-.3s-.63,7.35,3.13,5.51,4.85.16,6.73.33,3,.18,6.9-1.36,2.65,1.85,5.62,1.49,5.5-.93,7.93-2.88,3.93,3.21,6.77,3,1.43-2.57,4.88-3.65,2.18,4.1,4.84,3.7,1.74-4.6,5.81-4.11,2.79,4.61,5.93,4.19S360.4,472.11,361.1,465.18Z" fill="#6562be"/><path d="M238.54,450.38l-56.29-31.44s-4.11,6.14.08,6.34,4.17,2.49,5.73,3.55,2.53,1.6,6.7,2.14,1.42,2.9,4.2,4,5.26,1.85,8.33,1.31,1.89,4.72,4.48,5.89,2.51-1.56,6-.83-.08,4.63,2.45,5.57,3.75-3.18,7.07-.79.22,5.39,3.16,6.54S234.56,456.11,238.54,450.38Z" fill="#6562be"/><path d="M338.56,328.67c1.72,2,4.24,6.41,6.65,12l-3.55,2.16c-5.26,3.2-10.62,6.46-14.67,8.53l.12.79c3.67-1.85,8.64-4.84,14.94-8.68l3.45-2.1c1.18,2.82,2.33,5.93,3.33,9.19-7.37,4.4-12.54,8.94-10.81,13.71a8.21,8.21,0,0,0,5.05,5.15,17.8,17.8,0,0,0,9.17.28,35,35,0,0,1-1.49,11.66c-2.33,7.15-7.39,11.7-15,13.51a72.42,72.42,0,0,0-9.82,3c0,.26.06.53.11.79a68.68,68.68,0,0,1,9.89-3.06c7.91-1.88,13.15-6.59,15.57-14A36,36,0,0,0,353,369.59a57.45,57.45,0,0,0,11.93-4.17c.08-.32.16-.64.25-1A59.86,59.86,0,0,1,353,368.81,74.68,74.68,0,0,0,349.7,351c3.66-2.16,7.8-4.27,11.76-6.29,1.9-1,3.79-1.93,5.59-2.89q1.84-1,3.54-1.92l.55-.31,0-.87-1,.56c-1.12.64-2.31,1.28-3.54,1.92-1.77.93-3.63,1.88-5.51,2.84-4,2.05-8.06,4.11-11.65,6.21-1-3.26-2.15-6.37-3.34-9.19,4.87-2.94,9.94-5.94,14.64-8.4,1.24-.65,2.45-1.25,3.62-1.81,1.91-.91,3.71-1.7,5.38-2.31q-.11-.35-.24-.69c-1.73.62-3.6,1.43-5.57,2.37-1.17.56-2.38,1.16-3.61,1.81-4.61,2.41-9.6,5.36-14.51,8.33-2.43-5.68-5-10.11-6.71-12.15s-3.39-2.87-5.05-2.59c-3.83.64-6.94,7.28-10.32,15.63.14.36.28.68.42,1,3.3-8.19,6.49-15.27,10-15.86C335.59,326.11,337,326.87,338.56,328.67Zm10.5,22.69a73.19,73.19,0,0,1,3.16,17.6c-3.22.62-6.38.73-8.9-.2a7.53,7.53,0,0,1-4.6-4.71C337.19,359.83,342.18,355.5,349.06,351.36Z" fill="#fff"/><path d="M357.8,402.1a16.76,16.76,0,0,0,1.39,1.66l.54-.52a14.33,14.33,0,0,1-1.05-1.23c-2-2.51-2.61-4.82-1.85-6.9,1.23-3.37,5.82-5.74,10.58-7.33l-.28-.72c-4.91,1.65-9.69,4.15-11,7.79C355.31,397.08,355.87,399.51,357.8,402.1Z" fill="#fff"/><path d="M329.64,380l.33.68c5.25-2.59,7.61-4.9,7.21-7.07-.47-2.57-5-4.2-9.26-5.17,0,.26,0,.52,0,.77,4.13,1,8.16,2.45,8.55,4.54C336.77,375.5,334.41,377.66,329.64,380Z" fill="#fff"/><path d="M278.31,303.49a46.06,46.06,0,0,1,10,5.64l.74.55a49.45,49.45,0,0,1,7.24,6.86c3.91,4.51,7,6.12,9.76,6.12a9,9,0,0,0,4.3-1.23l.73-.43a42.89,42.89,0,0,0,3.62-2.58,35,35,0,0,1,7.07-4.54,16.58,16.58,0,0,1,3.07-1.06h0a18.23,18.23,0,0,1,7.54-.19,47.88,47.88,0,0,0,14.68.05c1.49-.2,2.95-.44,4.37-.7s2.71-.51,4-.76a91.39,91.39,0,0,1,9.89-1.58c0-.25.05-.49.09-.74a87.11,87.11,0,0,0-10.12,1.58c-1.43.28-2.88.57-4.34.83s-2.9.49-4.38.69a46.65,46.65,0,0,1-14.09-.11,19.26,19.26,0,0,0-6.73,0h0a18.83,18.83,0,0,0-4,1.2,34.8,34.8,0,0,0-7.55,4.76c-1.18.9-2.29,1.75-3.38,2.44-.24.15-.48.3-.72.43-3.78,2.14-7.48,2.07-13.28-4.64a50.38,50.38,0,0,0-6.94-6.64c-.24-.19-.48-.38-.73-.56a46.6,46.6,0,0,0-10.54-6C278.57,303.06,278.44,303.28,278.31,303.49Z" fill="#fff"/><path d="M271.21,316.72c3-.35,6.22-1.9,9.77-3.6a66.49,66.49,0,0,1,8.11-3.44q.44-.15.87-.27a20.44,20.44,0,0,1,9.92-.66c5.34,1.07,8.49,5.84,10.3,11.94.07.24.15.49.21.74,1.87,6.8,2.16,15.07,2,21.64.31-.69.6-1.38.85-2.09.09-6.29-.32-13.74-2.09-20-.07-.25-.14-.49-.22-.74C309,314,305.68,309.15,300,308a21.39,21.39,0,0,0-10.79.83c-.29.08-.59.18-.88.28a69.71,69.71,0,0,0-7.7,3.32c-3.29,1.58-6.29,3-9,3.45Z" fill="#fff"/><path d="M273.9,335.56c-2.22,3.55-.66,10,6.6,14.94,3.87,2.63,6.93,3.2,9.11,1.67,2.8-2,3.59-7.16,3.18-12.89,6.09,2.57,9.7,4.68,9.27,15.25a9.64,9.64,0,0,1-.57,3.06c.37-.35.73-.71,1.09-1.07a11.58,11.58,0,0,0,.23-2c.46-11.28-3.69-13.44-10.08-16.12a52.73,52.73,0,0,0-1.43-8.22,4.48,4.48,0,0,0-2.79-3.18c-4.51-1.78-13.45,1.47-21.61,5.38-.1.34-.2.68-.31,1,8.21-4,17.28-7.43,21.64-5.7a3.68,3.68,0,0,1,2.34,2.67,51.17,51.17,0,0,1,1.37,7.7,63.94,63.94,0,0,1-7.39-3.48C279.06,331.5,275.38,333.18,273.9,335.56Zm.63.39c1.73-2.76,5.51-3,9.65-.67a65,65,0,0,0,7.49,3.54l.34.14c.45,5.72-.28,10.81-2.83,12.6-1.89,1.33-4.67.76-8.26-1.68C274.05,345.2,272.5,339.21,274.53,336Zm-28.79,32.43c1.16,3.71,2.74,6,4.82,6.91a7.93,7.93,0,0,0,5.62,0c-.65,7.55,0,13.81,6.14,15.68l2.12.64c6.52,2,10.63,3.2,13,6.23a6.91,6.91,0,0,0,.51-.57c-2.53-3.13-6.79-4.42-13.32-6.38l-2.11-.64c-5.69-1.73-6.25-7.84-5.59-15.21a51.41,51.41,0,0,0,4.92-2.12,49.55,49.55,0,0,1,6.46-2.67,5.56,5.56,0,0,0-.22,4.32c.92,2.12,3.77,3.52,8.7,4.28a11,11,0,0,1,5.4,2.52c-.09.9-.2,1.83-.31,2.79a41,41,0,0,0-.44,7.47,17.8,17.8,0,0,0,.71-2h0c0-1.77.25-3.57.47-5.36.09-.75.18-1.5.26-2.25l.36.36c0-.3.09-.6.15-.89l-.42-.4c.41-5-.12-9.42-6-11.63a12.49,12.49,0,0,0-7.33-.32,52.86,52.86,0,0,1,3-4.8l1.2-1.79c1.84-2.78,6.94-2,12.34-1.16,3.72.57,7.52,1.16,10.55.61L298,360.9c-3,1-7.39.36-11.62-.29-5.64-.87-11-1.69-13.08,1.5-.39.6-.8,1.19-1.2,1.78a44.18,44.18,0,0,0-3.34,5.46,46.3,46.3,0,0,0-7.17,2.89c-1.55.74-3.07,1.45-4.52,2,.2-2,.47-4,.74-6.06.83-6.2,1.67-12.59.53-17.54l-.57,1c.86,4.71.07,10.68-.7,16.48-.29,2.19-.58,4.35-.78,6.42a7.38,7.38,0,0,1-5.38.12c-2-.89-3.47-3.18-4.58-7C246.11,367.87,245.92,368.12,245.74,368.38ZM269.25,370a15.15,15.15,0,0,1,3.76-.52,10.56,10.56,0,0,1,3.73.66c5.2,2,5.86,5.75,5.54,10.34a11.6,11.6,0,0,0-5.35-2.36c-4.66-.72-7.32-2-8.14-3.84C268.26,373,268.54,371.59,269.25,370Z" fill="#fff"/><path d="M318,150.26s-5.68,4.81-6.42,14.43S289.6,176,289.6,176s20.11-.69,20.57-11.85a32.59,32.59,0,0,1,7.17-18.73S321,146.48,318,150.26Z" fill="#161730"/><path d="M284.37,282.19c0,5.17.07,9.32.16,12,.07,2.12.14,3.3.14,3.3l11,.77,29.48,2.05c5.61.39,11.35.78,16.91,1.18l26.2,1.82,11.1.76c.26-.05.35-1.4.32-3.58s-.15-5.08-.34-8.37c-.66-11.19-2.05-26.54-2.39-29.05-.2-1.41-.4-2.83-.61-4.28-.85-5.84-1.82-11.92-3-18-.64-3.41-1.34-6.82-2.11-10.19C366.83,211.11,360.4,193,350.63,184a25.76,25.76,0,0,0-3.54-2.73,18.32,18.32,0,0,0-1.81-1,27.59,27.59,0,0,0-6-2.15l-.72-.17a35.63,35.63,0,0,0-11.8-.49,24.81,24.81,0,0,0-6.67,1.77c-.22.09-.45.19-.67.3-.63.31-1.2.79-1.8,1a27.61,27.61,0,0,0-7.74,4.46c-.39.3-.75.62-1.13,1-11.68,10.33-17.85,30.57-21.05,51A310.9,310.9,0,0,0,284.37,282.19Z" fill="#fe4877"/><path d="M311.76,148.4l.94,15.08a10,10,0,0,0,10.6,9.37l.58.05c.05.62.08,1.23.12,1.85.1,1.48.19,3,.28,4.46.06,1-.25,2.08.37,2.92a5.6,5.6,0,0,0,2.46,1.53c2.5.9,7.91.54,7.67-3.28L334,167.85,334,147Z" fill="#fd925a"/><path d="M312.58,152.84c-1.43.09-4.18,8-4.18,8l4.66-.29Z" fill="#ff534a"/><circle cx="322.04" cy="160.53" r="3.59" fill="#ff534a"/><path d="M319.3,153.57a.45.45,0,0,0-.11-.13,1.42,1.42,0,0,0-.72-.25c-1.14-.17-4.06-.69-4.37,1-.25,1.34,1.6,1,2.58.92S320.06,154.74,319.3,153.57Z" fill="#fff"/><path d="M315.89,153s1.19.72.14,2.18c0,0-2.2.46-1.93-1A1.51,1.51,0,0,1,315.89,153Z" fill="#0c0604"/><path d="M313.77,167.29a3,3,0,0,0,3.5-1l-.62-.42c-1,1.41-2.83.65-2.91.61l-.29.69Z" fill="#33270a"/><path d="M314.41,150.9s2.66-1.29,6,1.51C320.42,152.41,315,152,314.41,150.9Z" fill="#0c0604"/><path d="M329,150.42s-2.43,7,1.86,15.69-13.06,21-13.06,21,16.93-10.88,11.61-20.7A32.67,32.67,0,0,1,326,146.61S329.7,145.62,329,150.42Z" fill="#161730"/><polygon points="280.61 195.78 297.05 205.19 321.58 177.75 319.14 175.75 308.26 188.43 306.44 186.71 317.74 172.12 316.25 169.35 304.16 184.56 301.84 182.36 314.7 167.28 313.12 166.29 300.15 180.76 297.99 178.72 310.72 165.22 308.4 163.34 292.24 181.14 291.94 167.01 289.17 168.5 289.28 184.81 280.61 195.78" fill="#fd925a"/><rect x="258.33" y="187.46" width="29.21" height="73.78" transform="translate(380.55 560.88) rotate(-147.15)" fill="#ffcb39"/><polygon points="332.1 284.07 321.82 299.26 324.24 301.03 334.08 285.31 336.61 286.89 325.88 303.09 327.23 304.36 338.57 288.11 341.28 289.81 329.62 305.35 332.68 306.09 343.94 291.47 346.06 292.8 336.55 306.53 339.09 308.38 348.87 294.55 349.35 293.87 350.53 291.99 359.46 277.72 346.21 264.19 337.76 275.34 321.98 279.35 321.24 282.41 334.96 279.14 332.04 284.03 332.1 284.07" fill="#fd925a"/><path d="M367.11,247l22.11-19.24L363.6,182.49a14.6,14.6,0,0,0-20-5.35h0a14.62,14.62,0,0,0-5.35,20Z" fill="#ffcb39"/><rect x="347.43" y="218.17" width="29.21" height="64.36" transform="translate(578.56 633.58) rotate(-154.13)" fill="#ffcb39"/><path d="M307.74,151.78c6.66,1,11.93-2.36,14.05-4,3.2,8.35,8.93,20.79,15.36,23.24,0,0,10.11-22.24-1.24-29.48a13.2,13.2,0,0,0,2.34-4.42,13,13,0,1,0-22,5.12C307.57,145.84,307.74,151.78,307.74,151.78Z" fill="#161730"/><circle cx="328.95" cy="156.68" r="4.13" fill="#fd925a"/><path d="M327.62,156.79a3.63,3.63,0,0,0-.16,2.12l.74-.13a2.37,2.37,0,0,1,.35-2.05,2.33,2.33,0,0,1,1.64-.61l0-.75a3.09,3.09,0,0,0-2.09.72,1.77,1.77,0,0,1-.14-1.22c.08-.23.22-.3.24-.3l-.29-.7a1.23,1.23,0,0,0-.64.71A2.89,2.89,0,0,0,327.62,156.79Z" fill="#0c0604"/><rect x="155.92" y="75.7" width="145.43" height="71.29" fill="#ffcb39"/><polygon points="276.85 139.37 304.45 157.61 281.6 127.11 276.85 139.37" fill="#ffcb39"/><polyline points="172.32 113.25 181.82 123.7 205.11 91.39" fill="none" stroke="#161730" stroke-miterlimit="10" stroke-width="6"/><rect x="226.97" y="97.56" width="59.88" height="2.85" fill="#161730"/><rect x="226.97" y="105.64" width="43.72" height="2.85" fill="#161730"/><rect x="226.97" y="113.72" width="50.54" height="2.85" fill="#161730"/><rect x="116.4" y="16.59" width="145.43" height="71.29" transform="translate(378.22 104.48) rotate(-180)" fill="#6562be"/><polygon points="135.41 83.6 115.45 109.98 126.85 73.62 135.41 83.6" fill="#6562be"/><rect x="130.89" y="38.46" width="59.88" height="2.85" fill="#ffcb39"/><rect x="130.89" y="46.53" width="43.72" height="2.85" fill="#ffcb39"/><rect x="130.89" y="54.61" width="50.54" height="2.85" fill="#ffcb39"/><line x1="243.13" y1="35.31" x2="214.14" y2="64.77" fill="none" stroke="#ffcb39" stroke-miterlimit="10" stroke-width="6"/><line x1="214.14" y1="35.31" x2="243.13" y2="64.77" fill="none" stroke="#ffcb39" stroke-miterlimit="10" stroke-width="6"/><path d="M219.64,427.55v7.25h-6.12v20.79a12.3,12.3,0,0,1-12.3,12.3h-9.57a12.3,12.3,0,0,1-12.29-12.3V434.8h-4.94v-7.25Z" fill="#fb9159"/><path d="M204.05,405.29c2.65.37,10.84,1.94,14.9,7.52,0,0-13.91,4.63-15.64-6.69-9.31,10.8-6.55,21.2-6.51,21.33l-.72.21a20.29,20.29,0,0,1-.22-7.4c-2,.65-12.08,3.35-19.37-3.81,0,0,12.4-2.3,19.42,3.43.78-5.08,3.43-12,11.16-18.52-2-.92-11.84-6-11.41-14.74,0,0,12.05.8,11.76,14.45a48.65,48.65,0,0,1,4.5-3.31c6.61-4.32,9.59-7.27,9.67-9.59.08-2.1-2.18-3.81-5.3-6.18a43.16,43.16,0,0,1-9.53-9.1l.61-.44a42.21,42.21,0,0,0,9.38,8.94c3.17,2.41,5.68,4.32,5.59,6.81s-3.08,5.66-10,10.19l-.37.25c11-.54,13.54,5.86,13.54,5.86-5.08,2.74-12.42-3.5-14.37-5.3A42.06,42.06,0,0,0,204.05,405.29Z" fill="#ffcb39"/><path d="M208.82,354.33s-4.95,8.72-2.06,12.37S213.65,359.05,208.82,354.33Z" fill="#6562be"/><path d="M206.21,372.37s-5,8.72-2.06,12.37S211,377.09,206.21,372.37Z" fill="#6562be"/><path d="M203.69,370.11s-7.38-6.8-11.59-4.81S198,373.74,203.69,370.11Z" fill="#6562be"/><path d="M210,371.75s9.31,3.72,12.54.36S214.06,366.32,210,371.75Z" fill="#6562be"/><path d="M209.5,368.5s10-.58,11.5-5S210.84,361.88,209.5,368.5Z" fill="#6562be"/><path d="M204.48,372.4s-10-.61-12,3.6S202.36,378.82,204.48,372.4Z" fill="#6562be"/><path d="M209,373.31s2.72,9.65,7.35,10.16S215.71,373.2,209,373.31Z" fill="#6562be"/><path d="M205.6,367.42s-2.68-9.67-7.31-10.2S198.84,367.5,205.6,367.42Z" fill="#6562be"/><circle cx="206.94" cy="370.27" r="4.35" fill="#fe4877"/></svg>