<svg width="129" height="29" viewBox="0 0 129 29" fill="none" xmlns="http://www.w3.org/2000/svg">
<path d="M35.424 22.978C34.3533 22.978 33.4367 22.7653 32.674 22.34C31.9113 21.9 31.332 21.3207 30.936 20.602C30.5547 19.8687 30.364 19.0767 30.364 18.226C30.364 17.962 30.4227 17.7567 30.54 17.61C30.672 17.4633 30.892 17.39 31.2 17.39C31.772 17.39 32.058 17.632 32.058 18.116C32.058 18.8053 32.212 19.3993 32.52 19.898C32.828 20.3967 33.2387 20.778 33.752 21.042C34.2653 21.306 34.8227 21.438 35.424 21.438C36.304 21.438 37.0227 21.2327 37.58 20.822C38.152 20.4113 38.438 19.8173 38.438 19.04C38.438 18.468 38.284 17.9987 37.976 17.632C37.668 17.2507 37.2647 16.95 36.766 16.73C36.2673 16.4953 35.6293 16.2607 34.852 16.026C34.016 15.7913 33.3047 15.5493 32.718 15.3C32.1313 15.036 31.5813 14.618 31.068 14.046C30.5693 13.474 30.32 12.7187 30.32 11.78C30.32 10.944 30.54 10.196 30.98 9.536C31.42 8.876 32.0067 8.36267 32.74 7.996C33.4733 7.62933 34.28 7.446 35.16 7.446C36.0693 7.446 36.8907 7.644 37.624 8.04C38.372 8.436 38.9513 8.95667 39.362 9.602C39.7873 10.2473 40 10.9293 40 11.648C40 11.9707 39.934 12.198 39.802 12.33C39.6847 12.462 39.4793 12.528 39.186 12.528C38.8487 12.528 38.6213 12.462 38.504 12.33C38.3867 12.198 38.328 12.0147 38.328 11.78C38.328 11.0027 38.0347 10.3427 37.448 9.8C36.8613 9.25733 36.0987 8.986 35.16 8.986C34.2213 8.986 33.4587 9.25733 32.872 9.8C32.3 10.328 32.014 10.9953 32.014 11.802C32.014 12.3447 32.168 12.792 32.476 13.144C32.7987 13.4813 33.1947 13.7453 33.664 13.936C34.148 14.1267 34.83 14.354 35.71 14.618C36.458 14.8527 37.1327 15.1167 37.734 15.41C38.35 15.6887 38.9 16.1287 39.384 16.73C39.868 17.3313 40.11 18.094 40.11 19.018C40.11 19.81 39.9047 20.5067 39.494 21.108C39.098 21.7093 38.5407 22.1713 37.822 22.494C37.118 22.8167 36.3187 22.978 35.424 22.978ZM48.4365 23.088C47.2338 23.088 46.1925 22.8313 45.3125 22.318C44.4472 21.79 43.7872 21.1007 43.3325 20.25C42.8925 19.3847 42.6725 18.446 42.6725 17.434C42.6725 16.3927 42.9072 15.4393 43.3765 14.574C43.8458 13.694 44.5132 12.9973 45.3785 12.484C46.2438 11.9707 47.2412 11.714 48.3705 11.714C49.3678 11.714 50.2625 11.9193 51.0545 12.33C51.8465 12.726 52.4625 13.2833 52.9025 14.002C53.3425 14.7207 53.5625 15.542 53.5625 16.466C53.5625 16.906 53.5112 17.2213 53.4085 17.412C53.3058 17.588 53.0492 17.6833 52.6385 17.698L44.2565 17.874C44.2565 18.4313 44.4252 19.0033 44.7625 19.59C45.0998 20.1767 45.5765 20.668 46.1925 21.064C46.8232 21.46 47.5492 21.658 48.3705 21.658C48.9865 21.658 49.5145 21.57 49.9545 21.394C50.3945 21.2033 50.7392 20.9907 50.9885 20.756C51.2378 20.5213 51.5385 20.1913 51.8905 19.766C51.9932 19.634 52.1545 19.568 52.3745 19.568C52.5652 19.568 52.7412 19.6413 52.9025 19.788C53.0785 19.9347 53.1665 20.1033 53.1665 20.294C53.1665 20.4407 53.1078 20.5947 52.9905 20.756C52.5212 21.4013 51.9492 21.9513 51.2745 22.406C50.6145 22.8607 49.6685 23.088 48.4365 23.088ZM51.9125 16.356C52.0592 16.356 52.1325 16.2533 52.1325 16.048C52.1325 15.168 51.7805 14.4567 51.0765 13.914C50.3725 13.3567 49.4852 13.078 48.4145 13.078C47.6078 13.078 46.8892 13.2833 46.2585 13.694C45.6278 14.1047 45.1365 14.5887 44.7845 15.146C44.4325 15.7033 44.2565 16.1727 44.2565 16.554L51.9125 16.356ZM57.6576 22.802C57.4082 22.802 57.2029 22.736 57.0416 22.604C56.8949 22.472 56.8216 22.2813 56.8216 22.032L56.6896 6.368C56.6896 6.11867 56.7702 5.928 56.9316 5.796C57.0929 5.64933 57.3056 5.576 57.5696 5.576C57.8189 5.576 58.0169 5.64933 58.1636 5.796C58.3102 5.928 58.3836 6.11133 58.3836 6.346L58.4936 22.032C58.4936 22.2813 58.4129 22.472 58.2516 22.604C58.1049 22.736 57.9069 22.802 57.6576 22.802ZM66.3251 6.72C68.3637 6.72 69.3831 7.87867 69.3831 10.196C69.3831 10.724 69.1117 10.988 68.5691 10.988C67.9971 10.988 67.7111 10.7387 67.7111 10.24C67.7111 9.58 67.6231 9.06667 67.4471 8.7C67.2711 8.33333 66.9044 8.15 66.3471 8.15C65.7164 8.15 65.2764 8.414 65.0271 8.942C64.7924 9.47 64.6751 10.2693 64.6751 11.34C64.6751 12.4693 64.6824 13.386 64.6971 14.09H66.4351C66.6404 14.09 66.8017 14.156 66.9191 14.288C67.0364 14.4053 67.0951 14.5813 67.0951 14.816C67.0951 15.212 66.8751 15.4173 66.4351 15.432L64.7191 15.476C64.7484 18.2333 64.7631 20.492 64.7631 22.252C64.7631 22.516 64.6824 22.7067 64.5211 22.824C64.3744 22.9413 64.1837 23 63.9491 23C63.6851 23 63.4871 22.934 63.3551 22.802C63.2231 22.67 63.1571 22.494 63.1571 22.274C63.1571 20.9247 63.1277 19.0767 63.0691 16.73L63.0471 15.52L61.7271 15.542C61.4631 15.542 61.2724 15.4833 61.1551 15.366C61.0377 15.2487 60.9791 15.0727 60.9791 14.838C60.9791 14.6327 61.0304 14.4713 61.1331 14.354C61.2357 14.2367 61.4264 14.1707 61.7051 14.156L63.0251 14.134C62.9957 12.6967 62.9811 11.758 62.9811 11.318C62.9811 9.91 63.2524 8.79533 63.7951 7.974C64.3524 7.138 65.1957 6.72 66.3251 6.72ZM90.2167 16.774C90.8034 16.774 91.0967 17.0527 91.0967 17.61C91.0967 18.6073 90.8254 19.524 90.2827 20.36C89.7547 21.1813 88.9921 21.8413 87.9947 22.34C87.0121 22.824 85.8607 23.066 84.5407 23.066C83.2501 23.066 82.0474 22.7947 80.9327 22.252C79.8181 21.7093 78.9234 20.8807 78.2487 19.766C77.5741 18.6513 77.2367 17.2727 77.2367 15.63C77.2367 14.0313 77.5594 12.6013 78.2047 11.34C78.8647 10.064 79.7447 9.074 80.8447 8.37C81.9594 7.666 83.1621 7.314 84.4527 7.314C85.3474 7.314 86.1541 7.48267 86.8727 7.82C87.5914 8.15733 88.1927 8.634 88.6767 9.25L88.6547 8.172C88.6547 7.93733 88.7207 7.754 88.8527 7.622C88.9994 7.49 89.2121 7.424 89.4907 7.424C90.0187 7.424 90.2827 7.69533 90.2827 8.238V10.702C90.2827 11.362 90.0187 11.692 89.4907 11.692C89.3001 11.692 89.1387 11.6553 89.0067 11.582C88.8747 11.5087 88.7501 11.3913 88.6327 11.23C87.4741 9.66067 86.0807 8.876 84.4527 8.876C83.4554 8.876 82.5314 9.17667 81.6807 9.778C80.8301 10.3647 80.1554 11.1787 79.6567 12.22C79.1727 13.2467 78.9307 14.4053 78.9307 15.696C78.9307 16.972 79.2021 18.05 79.7447 18.93C80.3021 19.7953 81.0134 20.4407 81.8787 20.866C82.7587 21.2913 83.6901 21.504 84.6727 21.504C85.4647 21.504 86.2201 21.3647 86.9387 21.086C87.6574 20.8073 88.2441 20.382 88.6987 19.81C89.1534 19.2233 89.3807 18.49 89.3807 17.61C89.3807 17.346 89.4541 17.1407 89.6007 16.994C89.7474 16.8473 89.9527 16.774 90.2167 16.774ZM103.634 21.57C103.839 21.5993 103.993 21.658 104.096 21.746C104.198 21.834 104.25 21.9953 104.25 22.23C104.25 22.45 104.191 22.626 104.074 22.758C103.971 22.89 103.824 22.956 103.634 22.956C103.032 22.956 102.585 22.8607 102.292 22.67C102.013 22.4793 101.771 22.12 101.566 21.592C100.906 22.6627 99.7325 23.198 98.0458 23.198C96.8578 23.198 95.8971 22.934 95.1638 22.406C94.4305 21.878 93.9025 21.2107 93.5798 20.404C93.2718 19.5827 93.1178 18.7173 93.1178 17.808C93.1178 16.8253 93.3158 15.9013 93.7118 15.036C94.1078 14.1707 94.6871 13.474 95.4498 12.946C96.2271 12.418 97.1511 12.154 98.2218 12.154C98.9551 12.154 99.5931 12.3007 100.136 12.594C100.678 12.8873 101.104 13.298 101.412 13.826L101.5 13.1C101.529 12.5573 101.778 12.286 102.248 12.286C102.541 12.286 102.761 12.3593 102.908 12.506C103.069 12.638 103.135 12.7993 103.106 12.99L103.04 13.54C102.937 14.156 102.864 14.794 102.82 15.454C102.776 16.0113 102.754 16.7593 102.754 17.698V19.216C102.754 19.8467 102.768 20.316 102.798 20.624C102.842 20.9173 102.922 21.1447 103.04 21.306C103.157 21.4673 103.355 21.5553 103.634 21.57ZM101.082 19.194C101.096 18.5047 101.104 17.6173 101.104 16.532C101.104 15.8133 100.95 15.234 100.642 14.794C100.334 14.3393 99.9598 14.0167 99.5198 13.826C99.0798 13.6353 98.6618 13.54 98.2658 13.54C97.4885 13.54 96.8358 13.76 96.3078 14.2C95.7945 14.64 95.4131 15.19 95.1638 15.85C94.9291 16.51 94.8118 17.1627 94.8118 17.808C94.8118 18.8347 95.0611 19.7587 95.5598 20.58C96.0731 21.3867 96.9091 21.79 98.0678 21.79C98.9331 21.79 99.6445 21.57 100.202 21.13C100.774 20.6753 101.067 20.03 101.082 19.194ZM112.281 11.692C113.219 11.692 113.953 11.9927 114.481 12.594C115.009 13.1807 115.273 13.8993 115.273 14.75C115.273 15.5567 115.031 16.1947 114.547 16.664C114.063 17.1187 113.439 17.346 112.677 17.346C112.383 17.346 112.171 17.302 112.039 17.214C111.921 17.126 111.863 16.9647 111.863 16.73C111.863 16.3487 112.046 16.1507 112.413 16.136C113.366 16.048 113.843 15.5787 113.843 14.728C113.843 14.2733 113.718 13.8847 113.469 13.562C113.219 13.2393 112.816 13.078 112.259 13.078C111.672 13.078 111.159 13.3273 110.719 13.826C110.293 14.3247 109.956 14.948 109.707 15.696C109.457 16.4293 109.311 17.1553 109.267 17.874C109.179 19.2233 109.135 20.4993 109.135 21.702C109.135 22.3033 109.076 22.6993 108.959 22.89C108.856 23.0807 108.643 23.176 108.321 23.176C107.998 23.176 107.771 23.1027 107.639 22.956C107.521 22.7947 107.463 22.5233 107.463 22.142L107.441 17.94C107.441 16.972 107.367 15.696 107.221 14.112C107.133 13.188 107.081 12.528 107.067 12.132C107.052 11.8973 107.118 11.7213 107.265 11.604C107.411 11.472 107.617 11.406 107.881 11.406C108.335 11.406 108.577 11.626 108.607 12.066C108.695 12.99 108.746 13.892 108.761 14.772C109.01 13.804 109.443 13.0487 110.059 12.506C110.675 11.9633 111.415 11.692 112.281 11.692ZM123.632 23.088C122.429 23.088 121.388 22.8313 120.508 22.318C119.642 21.79 118.982 21.1007 118.528 20.25C118.088 19.3847 117.868 18.446 117.868 17.434C117.868 16.3927 118.102 15.4393 118.572 14.574C119.041 13.694 119.708 12.9973 120.574 12.484C121.439 11.9707 122.436 11.714 123.566 11.714C124.563 11.714 125.458 11.9193 126.25 12.33C127.042 12.726 127.658 13.2833 128.098 14.002C128.538 14.7207 128.758 15.542 128.758 16.466C128.758 16.906 128.706 17.2213 128.604 17.412C128.501 17.588 128.244 17.6833 127.834 17.698L119.452 17.874C119.452 18.4313 119.62 19.0033 119.958 19.59C120.295 20.1767 120.772 20.668 121.388 21.064C122.018 21.46 122.744 21.658 123.566 21.658C124.182 21.658 124.71 21.57 125.15 21.394C125.59 21.2033 125.934 20.9907 126.184 20.756C126.433 20.5213 126.734 20.1913 127.086 19.766C127.188 19.634 127.35 19.568 127.57 19.568C127.76 19.568 127.936 19.6413 128.098 19.788C128.274 19.9347 128.362 20.1033 128.362 20.294C128.362 20.4407 128.303 20.5947 128.186 20.756C127.716 21.4013 127.144 21.9513 126.47 22.406C125.81 22.8607 124.864 23.088 123.632 23.088ZM127.108 16.356C127.254 16.356 127.328 16.2533 127.328 16.048C127.328 15.168 126.976 14.4567 126.272 13.914C125.568 13.3567 124.68 13.078 123.61 13.078C122.803 13.078 122.084 13.2833 121.454 13.694C120.823 14.1047 120.332 14.5887 119.98 15.146C119.628 15.7033 119.452 16.1727 119.452 16.554L127.108 16.356Z" fill="black"/>
<path fill-rule="evenodd" clip-rule="evenodd" d="M17.255 21.75H11.745C10.5912 21.7493 9.4512 21.4993 8.40293 21.0173C7.35467 20.5352 6.4229 19.8325 5.67136 18.957C4.91983 18.0815 4.36626 17.0541 4.04853 15.9449C3.73079 14.8357 3.6564 13.671 3.83042 12.5304V12.5304C4.12976 10.5643 4.94826 8.71371 6.20146 7.16951C7.45467 5.6253 9.0972 4.44343 10.9596 3.74584V3.74584C13.242 2.88823 15.758 2.88823 18.0404 3.74584V3.74584C19.8974 4.44319 21.5353 5.62214 22.786 7.16168C24.0367 8.70121 24.8553 10.5459 25.1575 12.5063V12.5063C25.3352 13.6476 25.264 14.814 24.9487 15.9253C24.6335 17.0366 24.0816 18.0665 23.331 18.9445C22.5803 19.8226 21.6487 20.5279 20.6 21.0121C19.5512 21.4964 18.4101 21.7481 17.255 21.75V21.75Z" stroke="black" stroke-width="1.5" stroke-linecap="round" stroke-linejoin="round"/>
<path d="M19.1762 21.5204L21.75 25.375" stroke="black" stroke-width="1.5" stroke-linecap="round" stroke-linejoin="round"/>
<path d="M9.82375 21.5204L7.25 25.375" stroke="black" stroke-width="1.5" stroke-linecap="round" stroke-linejoin="round"/>
<path d="M8.45837 14.5L10.0775 15.5754C11.3876 16.4479 12.926 16.9144 14.5 16.9167C16.0741 16.9144 17.6124 16.4479 18.9225 15.5754L20.5417 14.5" stroke="black" stroke-width="1.5" stroke-linecap="round" stroke-linejoin="round"/>
</svg>
