<svg id="Capa_1" data-name="Capa 1" xmlns="http://www.w3.org/2000/svg" viewBox="0 0 365.7 476.91"><title>Mesa de trabajo 32</title><path d="M61.41,439.33a12.7,12.7,0,0,1-12.66-22,12.45,12.45,0,0,1,5.84-1.67l0-3.74-1.61,0,.08-5.69,4.07.06-.08,5.68-1.61,0-.05,3.72a12.7,12.7,0,0,1,6,23.7Z" fill="#161730"/><path d="M29,439.33a12.7,12.7,0,0,1-12.66-22,12.45,12.45,0,0,1,5.84-1.67l.05-3.74-1.61,0,.08-5.69,4.07.06-.07,5.68-1.62,0L23,415.63a12.7,12.7,0,0,1,6,23.7Z" fill="#161730"/><path d="M359.22,228.65a65.14,65.14,0,0,1-24,50.53v17.33a2.1,2.1,0,0,1-4.2,0V282.34a64.84,64.84,0,0,1-22.93,10v20.5a2.08,2.08,0,1,1-4.15,0V293.15a65.27,65.27,0,1,1,55.24-64.5Z" fill="#6562be"/><path d="M279,349.23a2.06,2.06,0,0,1,.6,1.46v17.63a2.07,2.07,0,1,1-4.14,0V350.69a2.07,2.07,0,0,1,3.54-1.46Z" fill="#ffcb39"/><path d="M290.83,281.77a76.4,76.4,0,0,1-11.26,40v22.63a2.07,2.07,0,1,1-4.14,0V327.9a77,77,0,0,1-27.25,22.65v39a2.07,2.07,0,0,1-2.08,2.07l-.36,0a2.22,2.22,0,0,1-.37,0,2.07,2.07,0,0,1-2.08-2.07V352.77a76.77,76.77,0,1,1,47.54-71Z" fill="#ffcb39"/><circle cx="159.91" cy="155.51" r="87.53" fill="#6562be"/><path d="M221.13,5.43h0A59.88,59.88,0,0,1,281,65.32V91.55a0,0,0,0,1,0,0H161.24a0,0,0,0,1,0,0V65.32A59.88,59.88,0,0,1,221.13,5.43Z" transform="translate(-4.64 65.13) rotate(-16.58)" fill="#161730"/><path d="M241.86,153.05l-1.06,74.34-.32,23.25c-.07,5,1.82,10.73-1.19,15.23-2.59,3.86-8.26,6.74-12.42,8.5-12.7,5.36-40.84,4.77-40.56-15.08l1.51-107Z" fill="#fd925a"/><path d="M188.66,225l55.3-7.61a52,52,0,0,0,52.69-51.21l1.11-78.48L182.23,86.05Z" fill="#fd925a"/><path d="M294.63,110.93c7.46.11,23.54,48.79,23.54,48.79L294,159.38Z" fill="#ff534a"/><circle cx="247.44" cy="153.13" r="18.63" fill="#ff534a"/><circle cx="200.18" cy="134.76" r="21.43" fill="#fd925a"/><path d="M205.38,134.79c1.57,2.59,2.09,6.06,1.55,10.35l-.74-.09c.65-5.16-.28-9-2.75-11.55-3.67-3.73-9.61-3.13-9.67-3.12l-.08-.75c.25,0,6.35-.65,10.28,3.34a9.34,9.34,0,0,1,.91,1.07l0,.05V134c2.16-5.15,1.83-8.09,1.15-9.66a4.14,4.14,0,0,0-1.93-2.14l0-.42.12-.35a4.63,4.63,0,0,1,2.52,2.58C207.86,126.55,207.39,130.17,205.38,134.79Z" fill="#0c0604"/><path d="M204.9,134l-.78-11.8a4.14,4.14,0,0,1,1.93,2.14C206.73,125.89,207.06,128.83,204.9,134Z" fill="#ffcb39"/><path d="M204.09,121.76l0,.42-.15-.06Z" fill="#0c0604"/><path d="M204.91,134.09l0-.05a.14.14,0,0,0,0-.06Z" fill="#0c0604"/><path d="M259.94,116.35a3.1,3.1,0,0,1,.56-.68,7.34,7.34,0,0,1,3.69-1.47c5.86-1.16,20.85-4.58,22.88,4.08,1.62,6.88-8,5.7-13.12,5.4C269.46,123.43,256.32,122.64,259.94,116.35Z" fill="#fff"/><path d="M277.49,112.58s-6,4-.16,11.34c0,0,11.5,1.84,9.74-5.64S277.49,112.58,277.49,112.58Z" fill="#0c0604"/><path d="M255.45,114.1s31.73-3.27,31.76-5.14,2-9.29-3.6-9.37-33.67,8.85-31.83,10.74S251.75,112.19,255.45,114.1Z" fill="#161730"/><path d="M286.77,182.88A12.15,12.15,0,0,1,276.62,178l.59-.45c6.15,8.13,17.09,3,17.2,2.93l.33.67A20.5,20.5,0,0,1,286.77,182.88Z" fill="#33270a"/><polygon points="214.08 115.98 214.08 153.13 226.9 150.87 226.9 118.25 244.05 113.33 247.44 101.61 214.08 115.98" fill="#161730"/><rect x="151.67" y="68.87" width="166.95" height="39.97" rx="19.27" transform="translate(-15.58 70.81) rotate(-16.58)" fill="#fe4877"/><polygon points="294.58 161.82 259.32 176.13 306.06 176.13 294.58 161.82" fill="#161730"/><rect x="172.87" y="83.77" width="21.81" height="21.81" transform="translate(-19.38 56.39) rotate(-16.58)" fill="#ffcb39"/><path d="M92.58,216.88l-6,4.09-.64.44-17.55,12-6.14,4.21L44.83,249.56l5,49.56,15.76,13.25-.13.6s0,0,0,0l-.71,3.26-.08-.06L50.92,305l4.15,29.83-3.91.71-3.31-23-2.4.26,3.28,24L45.09,338l-3.73-24.71h0l-2.88.31,4.46,24.18-4.39.14-4-23.89-3.36.36,3.46,20.79L30.1,336l-3.26-21.14L19.92,238l24.76-22,29.5-26.19L76.34,193l7.16,10.52.79,1.16Z" fill="#ffcb39"/><polygon points="76.61 394.2 107.22 397.21 104.57 446.26 77.52 444.68 76.61 394.2" fill="#ffcb39"/><path d="M75.81,465.22l71.41-.1h0c.12-8.37-9.62-11.45-18-12.27l-24.68-6.75,1-17.66-28.26-1.72Z" fill="#161730"/><path d="M134.08,453.58s-7,10.43-5.16,11.57,18.3,0,18.3,0S148.57,456.5,134.08,453.58Z" fill="#fe4877"/><path d="M76.76,427.29s12.43,5.55,10.55,12.16-4,18.47,1.75,20,3.29,5.78,3.29,5.78l-16.54,0Z" fill="#fe4877"/><rect x="96.95" y="450.41" width="10.02" height="0.75" transform="translate(-250.55 151.88) rotate(-36.96)" fill="#ffcb39"/><rect x="106.25" y="453.93" width="9.58" height="0.75" transform="translate(-275.66 191.28) rotate(-42.04)" fill="#ffcb39"/><rect x="116.43" y="454.24" width="8.72" height="0.75" transform="translate(-302.76 249.98) rotate(-49.33)" fill="#ffcb39"/><path d="M119.16,303.89c-.08,10.44-.76,20.25-2.8,24-4.85,8.85-4.37,28.47-3.6,38.39,0,.26,0,.51,0,.75s0,.54.07.8c.17,1.88.47,3.9.8,6,0,.28.09.56.13.85,1.06,7,2.11,14.95-1.22,22.29-.13.28-.26.56-.41.84a22.56,22.56,0,0,1-1.72,2.88h-.91l-1,0-1.52,0-30.31-.47-5.38-.08a25.25,25.25,0,0,1-4.21-11q-.06-.4-.09-.81a22.66,22.66,0,0,1,2.33-12.32A28.19,28.19,0,0,0,72,368c.06-.29.1-.57.14-.86a28.21,28.21,0,0,0,.23-5.71c0-.27,0-.53-.06-.79a49,49,0,0,0-2.15-10.46c-.07-.26-.15-.53-.23-.79-.89-2.89-1.88-5.75-2.73-8.6-.28-.92-.54-1.85-.79-2.78-.07-.24-.13-.47-.19-.71-1.82-7-2.83-14.31-1.54-21.13a27.17,27.17,0,0,1,.79-3.2s0,0,0,0a26.36,26.36,0,0,1,2.38-5.47c3.18-5.49,3.33-11.86,2.5-17.75,0-.25-.07-.5-.11-.75a122.86,122.86,0,0,0-2.82-12.13,21.67,21.67,0,0,1-.57-4.74c-.17-7.48,2.23-16.49,2.23-16.49l41.37,12.94h0L118,271s0,.41.08,1.17c.18,2.65.6,9.49.85,17.57,0,.53,0,1.06.05,1.6,0,1.62.09,3.28.11,5,0,.48,0,1,0,1.44C119.17,299.75,119.17,301.84,119.16,303.89Z" fill="#161730"/><polygon points="174.07 387.61 202.1 374.96 224.26 418.8 200.02 430.9 174.07 387.61" fill="#ffcb39"/><path d="M208.78,449.56l61.85-35.67h0c-4.06-7.33-14.05-5.14-21.68-1.69l-24.76,6.45-7.93-15.81L190.9,415.43Z" fill="#161730"/><path d="M253.49,410.43s-.84,12.51,1.29,12.6,15.85-9.14,15.85-9.14S267.51,405.74,253.49,410.43Z" fill="#fe4877"/><path d="M190.69,416.22s13.55-1.39,15.21,5.28,5.76,18,11.46,16.43,5.74,3.37,5.74,3.37l-14.32,8.26Z" fill="#fe4877"/><rect x="219.24" y="423.65" width="10.01" height="0.75" transform="translate(-253.8 463.43) rotate(-66.84)" fill="#ffcb39"/><rect x="229.08" y="422.17" width="9.58" height="0.75" transform="translate(-240.35 513.92) rotate(-71.94)" fill="#ffcb39"/><rect x="238.12" y="417.58" width="8.72" height="0.75" transform="translate(-213.54 577.72) rotate(-79.19)" fill="#ffcb39"/><path d="M206.65,376.36l-3,1.66-26.52,14.71-4.7,2.61a18.2,18.2,0,0,1-1.88-1c-.46-.28-1-.62-1.58-1h0c-.31-.21-.63-.44-1-.71s-.42-.31-.63-.49a23.39,23.39,0,0,1-8-12.37q-.11-.37-.18-.75a23.8,23.8,0,0,1-.5-3.61,28.14,28.14,0,0,0-4.25-13.44l-.41-.63a50.44,50.44,0,0,0-8.25-9.31c-.24-.24-.49-.47-.74-.7-1.6-1.46-3.22-2.9-4.79-4.36-.19-.16-.37-.34-.55-.51l-.42-.39c-8.37-7.92-16.07-17.64-16-29.22a24.18,24.18,0,0,0-4.08-12.92,42.12,42.12,0,0,0-2.87-4.05l-.47-.58c-2.83-3.47-5.92-6.42-8.22-8.78-4.68-4.81-8-15.27-8.9-18.36-.17-.56-.25-.88-.25-.88l12-2.66h0L139.89,262l8.65-1.92s1,1.41,2.49,3.77v0h0c1.47,2.22,3.45,5.28,5.66,8.79,7.87,12.53,18.62,30.84,18.76,37.58a21,21,0,0,0,.47,3.84c0,.24.1.49.17.74.09.41.19.83.31,1.25s.16.58.25.88a61.64,61.64,0,0,0,3.25,8.35,150.27,150.27,0,0,0,12.45,21.31c2.27,3.25,5.41,6.74,8.17,10.69,2.91,4.14,5.39,8.78,6,14.17,0,.25.06.5.07.75A21.58,21.58,0,0,1,206.65,376.36Z" fill="#161730"/><path d="M75.31,464.78l71.89-.33s.7,8.2-3.49,6.14-5.41.18-7.51.37-3.33.2-7.69-1.51-2.95,2.06-6.27,1.66-6.13-1-8.84-3.22-4.39,3.59-7.55,3.33-1.6-2.87-5.44-4.07S98,471.72,95,471.28s-1.94-5.13-6.48-4.59-3.11,5.14-6.61,4.67S76.1,472.52,75.31,464.78Z" fill="#6562be"/><path d="M208.22,448.28,271,413.22s4.58,6.85-.09,7.07-4.65,2.78-6.38,4-2.83,1.78-7.47,2.39-1.59,3.23-4.69,4.48-5.87,2.06-9.29,1.46-2.1,5.26-5,6.56-2.79-1.73-6.73-.92.09,5.17-2.73,6.22-4.18-3.55-7.89-.89-.24,6-3.52,7.29S212.65,454.67,208.22,448.28Z" fill="#6562be"/><path d="M108.81,120.84h0a13.52,13.52,0,0,1,13.52,13.52v5.92a0,0,0,0,1,0,0h-27a0,0,0,0,1,0,0v-5.92a13.52,13.52,0,0,1,13.52-13.52Z" transform="translate(-32.74 36.49) rotate(-16.58)" fill="#161730"/><path d="M101.86,205a17.35,17.35,0,0,1-5.21,11,14.19,14.19,0,0,1-1.15,1l-8.15,6.64-.61.5L67.92,239.52l-2.47,2-3.18-3.9L44.68,216l-2.55-3.13,30-24.49a17.38,17.38,0,0,1,5.44-3,16.45,16.45,0,0,1,3-.71,15.72,15.72,0,0,1,3.49-.17c.25,0,.49,0,.74.05a17.43,17.43,0,0,1,11.92,6.35L98,192.47A17.46,17.46,0,0,1,101.86,205Z" fill="#fe4877"/><path d="M151.57,272.13H65.62s1.06-16.47,2.3-32.61c.16-2.05.32-4.09.49-6.1.92-11.29,1.88-21.32,2.56-23.92A125.64,125.64,0,0,1,76.34,193c.71-1.69,1.47-3.35,2.3-4.93.62-1.18,1.27-2.31,2-3.39,2.64-4.16,5.83-7.47,9.69-9,.52-.21,1.06-.4,1.63-.57a33.36,33.36,0,0,1,9.08-1.21,47,47,0,0,1,12.18,1.43c.79.21,1.55.44,2.25.69a26,26,0,0,1,6.62,3.51,33.1,33.1,0,0,1,5.34,4.88c.26.29.51.58.76.88a50.28,50.28,0,0,1,4.53,6.38,70,70,0,0,1,3.61,6.82c.05.1.09.19.13.29.84,1.79,1.61,3.64,2.33,5.51.43,1.08.83,2.17,1.22,3.26.72,2,1.38,4.08,2,6.12.06.17.11.35.16.52.18.59.35,1.19.52,1.78s.29,1,.42,1.51c.85,3.05,1.59,6.05,2.25,8.92.09.39.37,2,.76,4.44.47,2.9,1.11,6.94,1.8,11.38,0,.18,0,.37.09.56.7,4.62,1.45,9.63,2.11,14.23.36,2.45.69,4.79,1,6.88v0C152,270.73,152.37,274.94,151.57,272.13Z" fill="#161730"/><path d="M125.21,144.65c1.68,0,5.31,11,5.31,11l-5.47-.08Z" fill="#ff534a"/><path d="M126.11,139.4l-.25,17.72A11.73,11.73,0,0,1,114,168.68l-.69.09,0,2.17c0,1.75,0,3.5-.07,5.25,0,1.12.41,2.42-.27,3.44a6.67,6.67,0,0,1-2.8,1.92c-2.87,1.21-9.22,1.07-9.16-3.41l.21-14.72-.46-9.94a4.86,4.86,0,0,1-.31-6.59L100,139Z" fill="#ffcb39"/><path d="M105.58,150a4,4,0,0,1,.31,2.4l-.74-.09a2.79,2.79,0,0,0-.54-2.37,2.59,2.59,0,0,0-1.94-.62l-.09-.75a3.44,3.44,0,0,1,2.46.75,2.18,2.18,0,0,0,.11-1.52.63.63,0,0,0-.31-.36l.24-.71a1.37,1.37,0,0,1,.75.74A3.3,3.3,0,0,1,105.58,150Z" fill="#0c0604"/><path d="M117.57,145.88a.48.48,0,0,1,.13-.16,1.7,1.7,0,0,1,.83-.33c1.32-.26,4.71-1,5.17.92.36,1.55-1.82,1.29-3,1.22S116.75,147.3,117.57,145.88Z" fill="#fff"/><path d="M121.53,145s-1.35.91,0,2.56c0,0,2.59.42,2.2-1.27A1.78,1.78,0,0,0,121.53,145Z" fill="#0c0604"/><path d="M116.56,145.37s7.16-.74,7.17-1.16.45-2.1-.82-2.12-7.6,2-7.18,2.43S115.72,144.94,116.56,145.37Z" fill="#161730"/><path d="M123.66,161.19A3.07,3.07,0,0,1,121.1,160l.6-.45c1.24,1.64,3.43.61,3.53.57l.32.68A4.6,4.6,0,0,1,123.66,161.19Z" fill="#161730"/><polygon points="107.22 145.79 107.22 154.18 110.11 153.67 110.11 146.31 113.98 145.19 114.75 142.55 107.22 145.79" fill="#161730"/><rect x="93.13" y="135.16" width="37.69" height="9.02" rx="4.35" transform="translate(-35.21 37.77) rotate(-16.58)" fill="#fe4877"/><polygon points="125.39 156.14 117.43 159.37 127.98 159.37 125.39 156.14" fill="#161730"/><rect x="97.92" y="138.52" width="4.92" height="4.92" transform="translate(-36.06 34.51) rotate(-16.58)" fill="#ffcb39"/><path d="M220.89,124.19a12.7,12.7,0,1,1-23.56-6.56L194.28,116l-.76,1.42-5-2.66,1.91-3.6,5,2.66-.76,1.43,3.11,1.65a12.7,12.7,0,0,1,23.1,7.28Z" fill="#161730"/><rect x="41.94" y="428.97" width="26.2" height="42.41" transform="translate(0.84 -0.1) rotate(0.11)" fill="#6562be"/><rect x="53.2" y="413.04" width="3.75" height="30.57" rx="1.87" transform="translate(483.5 374.04) rotate(90.11)" fill="#ffcb39"/><path d="M37.91,428.35A1.89,1.89,0,0,1,36,430.22h-.31l-.08,41.17-26.2,0,.08-41.18H9.21a1.88,1.88,0,0,1,0-3.75l26.83.05A1.88,1.88,0,0,1,37.91,428.35Z" fill="#ffcb39"/><rect x="89.38" y="224.98" width="36.97" height="36.97" rx="10.12" fill="#fe4877"/><path d="M143.84,255.35c-8.47,0-29-1.34-45.35-13.12C77.34,227,84.56,180.56,84.64,180.09a.38.38,0,0,1,.43-.31.38.38,0,0,1,.31.43c-.08.46-7.22,46.47,13.55,61.41s48.51,12.89,48.79,12.86a.36.36,0,0,1,.4.35.37.37,0,0,1-.34.4C147.72,255.24,146.28,255.35,143.84,255.35Z" fill="#fe4877"/><path d="M124.86,238.26h-.75v-4.33a4.79,4.79,0,0,0-4.79-4.78H96.26a4.94,4.94,0,0,0-4.94,4.94v2.52h-.75v-2.52a5.69,5.69,0,0,1,5.69-5.69h23.06a5.54,5.54,0,0,1,5.54,5.53Z" fill="#ffcb39"/><circle cx="41.14" cy="163.38" r="16.26" fill="#ffcb39"/><circle cx="132.91" cy="55.65" r="4.41" fill="#ffcb39"/><circle cx="79.06" cy="94.68" r="2.53" fill="#ffcb39"/><circle cx="123.4" cy="101.61" r="13.93" fill="#ffcb39"/><circle cx="306.06" cy="214.77" r="21.33" fill="#ffcb39"/><circle cx="337.89" cy="186.18" r="6.61" fill="#fe4877"/><path d="M109.37,313.38a5.24,5.24,0,0,0-5.9,1.2,20.67,20.67,0,0,0-4.21,6.9,6.63,6.63,0,0,1-4.83-3.63c-1.89-3.42-2.12-8.52-1.06-13.31a8.3,8.3,0,0,0,1.2.38,6.05,6.05,0,0,0,6-1.73c4.75-4.75,6.37-10.31,4.64-12.11-.6-.62-2.49-1.62-7,2.56a20.47,20.47,0,0,0-5.33,9.86c-4.87-2.38-10-9.24-13.3-15.71,6.11-1.53,12.56-3.68,13.72-6.18a2,2,0,0,0-.11-2c-2.34-3.91-9.48-2.89-13.8-.92-1.09.5-3.58,1.81-3.14,3.18a43.1,43.1,0,0,0,2.24,5.38c-3,.72-5.92,1.31-8.26,1.73,0,.25.08.5.11.75,2.08-.38,5.21-1,8.5-1.78,3.4,6.68,8.75,13.83,13.86,16.27-1.13,5-.9,10.39,1.08,14a7.46,7.46,0,0,0,5.22,4C97,327.27,96,333.52,98,337.65c1.45,3.1,4.27,4.67,8.4,4.67a19.73,19.73,0,0,0,2.47-.17l-.09-.74c-5.14.65-8.53-.72-10.1-4.08-1.85-3.94-.8-10.08,1.11-15a10.51,10.51,0,0,0,3.53-.36c6.78-1.83,7.76-4.53,7.87-5.61A3,3,0,0,0,109.37,313.38ZM98.7,294.2c3.32-3.06,5.26-3.35,6-2.6,1.26,1.31,0,6.38-4.63,11.06a5.33,5.33,0,0,1-5.3,1.53,8.49,8.49,0,0,1-1.21-.39A19.76,19.76,0,0,1,98.7,294.2ZM77,281.65c-.15-.43.75-1.35,2.73-2.26a19.22,19.22,0,0,1,7.42-1.67c2.34,0,4.43.63,5.43,2.3a1.24,1.24,0,0,1,.07,1.27c-1,2.19-7.18,4.26-13.39,5.8A41.91,41.91,0,0,1,77,281.65Zm33.46,34.6c-.19,1.92-2.92,3.77-7.31,4.95a9.59,9.59,0,0,1-3,.37,19.79,19.79,0,0,1,3.92-6.45,4.53,4.53,0,0,1,5.06-1.07A2.24,2.24,0,0,1,110.42,316.25Z" fill="#fff"/><path d="M107.27,391a16.07,16.07,0,0,1,3.8-5.42l-.53-.53a17.19,17.19,0,0,0-3.9,5.5,19.57,19.57,0,0,0-4.09-2.17c-2.39-.94-3.67-2.42-3.79-4.39-.14-2.36,1.34-5.19,3.38-7.86a10.49,10.49,0,0,0,5.11.63,13.31,13.31,0,0,0,6.56-2.11c0-.29-.09-.57-.13-.85a12.44,12.44,0,0,1-6.5,2.22,10.17,10.17,0,0,1-4.55-.51,38.37,38.37,0,0,1,9.06-8.24,2.35,2.35,0,0,1,1.12-.3c0-.24,0-.49,0-.75a3.17,3.17,0,0,0-1.43.39,38.65,38.65,0,0,0-9.41,8.58,8.63,8.63,0,0,1-3.38-3.06,19.05,19.05,0,0,1-2.67-10c.95.3,1.85.6,2.69.89,4,1.36,7,2.35,8.55,1.19.8-.58,1.17-1.67,1.13-3.31-.12-5.64-3.17-8.89-6.14-9.6a4.79,4.79,0,0,0-5.53,2.45,18.16,18.16,0,0,0-1.42,7.37,53,53,0,0,0-5.94-1.51,16.08,16.08,0,0,0-3-5.93c-3-3.61-7.34-3.77-11.52-3.93a40.11,40.11,0,0,1-4.75-.37c.08.26.16.53.23.79a39.37,39.37,0,0,0,4.49.33c4.2.16,8.18.31,11,3.66a15.37,15.37,0,0,1,2.78,5.3,32.9,32.9,0,0,0-9.09-.36,25.73,25.73,0,0,0-7,1.53c0,.26,0,.52.06.79a24.58,24.58,0,0,1,7-1.57,26.91,26.91,0,0,1,3.09-.17,34.94,34.94,0,0,1,6.14.58c.88,3.48.63,7.12-1,9.39s-4.11,2.82-7.41,1.67a27.63,27.63,0,0,1-8.12-4.19c0,.29-.08.57-.14.86a30.7,30.7,0,0,0,8,4c3.6,1.26,6.54.57,8.28-1.95s2-6.08,1.16-9.67a56.51,56.51,0,0,1,5.72,1.49c0,3.65.79,7.68,2.77,10.65a9.53,9.53,0,0,0,3.54,3.26c-2.09,2.77-3.59,5.72-3.44,8.24.14,2.28,1.58,4,4.27,5a18.47,18.47,0,0,1,4.08,2.21,9,9,0,0,0-.46,3.45,8.12,8.12,0,0,0,.51,2.35,8.41,8.41,0,0,0,.72,1.56,11.62,11.62,0,0,0,1.41,2l1,0a9.56,9.56,0,0,1-2.9-6,8,8,0,0,1,.35-2.93,19.5,19.5,0,0,1,5.18,6c.15-.28.28-.56.41-.84A20,20,0,0,0,107.27,391Zm-10-36.91a4.06,4.06,0,0,1,4.7-2.07c2.69.65,5.45,3.64,5.56,8.89,0,1.38-.24,2.26-.82,2.69-1.26.92-4.18-.06-7.87-1.3-.92-.31-1.9-.64-2.93-1A17.71,17.71,0,0,1,97.23,354.13ZM85,321a5.45,5.45,0,0,0-6.3,1.13l-1,1-.18.17a21.57,21.57,0,0,1-3.58-5.07l-.68.33a22,22,0,0,0,3.69,5.27c-3.66,3.45-8.87,8.61-9,12.95-.59.15-1.17.32-1.73.52.06.24.12.47.19.71.51-.18,1-.34,1.58-.48l0,.22c.32,1.9,1.75,3.42,4.23,4.51,4.19,1.85,6.14,1.14,7,.22,1.18-1.21,1-3.22.32-4.68s-1.83-2.32-3-2.23l-.61,0a52.69,52.69,0,0,0-7.28,1c.23-4,5.23-8.93,8.75-12.25,1.87,1.71,4.26,3,7,2.28,2.27-.57,2.73-1.75,2.8-2.41A3.49,3.49,0,0,0,85,321Zm-9,15.34.61-.05c.8-.09,1.71.64,2.26,1.81s.74,2.89-.18,3.84-3.23.92-6.19-.38c-2.24-1-3.51-2.32-3.79-4a2.51,2.51,0,0,1,0-.27A51.43,51.43,0,0,1,76,336.38Zm8.22-10.45c-2.39.59-4.53-.53-6.24-2.09l.15-.14,1-1a4.66,4.66,0,0,1,5.45-1,2.81,2.81,0,0,1,1.83,2.45C86.39,325,85.6,325.59,84.24,325.93Z" fill="#fff"/><path d="M79.24,393.27a12.23,12.23,0,0,0,12.64-3.19A4.1,4.1,0,0,0,93,386a5.59,5.59,0,0,0-4-3.79,5.07,5.07,0,0,0-5,1.61,25.21,25.21,0,0,0-5.29,8.51,18.66,18.66,0,0,1-6.14-4.06c-.46-.44-.88-.85-1.25-1.25,6.66-3.31,12.66-6.67,12.3-7.88-.17-.55-.91-.67-2.58-.42L79,379c-5.92.86-9.83,1.43-10.51,3.58-.35,1.08.18,2.4,1.67,4.16L67,388.25q0,.4.09.81c1.18-.56,2.38-1.14,3.56-1.73.42.45.9.93,1.43,1.45A19.45,19.45,0,0,0,78.55,393a8.81,8.81,0,0,0-.25,1.35,4.27,4.27,0,0,0,.35,2.36c.59,1.14,1.8,1.71,3.6,1.71a12.21,12.21,0,0,0,1.52-.11l-.11-.75q-3.47.5-4.34-1.2a3.53,3.53,0,0,1-.29-1.94A8.77,8.77,0,0,1,79.24,393.27Zm5.36-9a4.35,4.35,0,0,1,4.31-1.4,4.81,4.81,0,0,1,3.41,3.26,3.37,3.37,0,0,1-1,3.39,11.53,11.53,0,0,1-11.9,3A24.81,24.81,0,0,1,84.6,384.3Zm-13.76,2.08c-1.37-1.58-1.91-2.76-1.65-3.58.54-1.7,4.68-2.3,9.91-3.06l2.11-.32a8.63,8.63,0,0,1,1.28-.11,1.66,1.66,0,0,1,.43,0C82.44,380.29,77.33,383.15,70.84,386.38Z" fill="#fff"/><path d="M87.39,303.14c-5-3.21-7.85-4.25-9.4-3.47-1.21.6-1.49,2.16-1.61,3.75,0,.17,0,.35,0,.52-1.29-.27-2.59-.55-3.87-.85l-.17.73c1.06.25,2.44.56,3.95.88,0,.26-.06.52-.1.79-.32,2.42-.64,4.92.69,6.44a4.93,4.93,0,0,0,3.91,1.35v-.75a4.24,4.24,0,0,1-3.35-1.1c-1.1-1.26-.8-3.59-.5-5.84l.09-.74c5.32,1.09,11.86,2.11,12.45.72C89.69,304.94,89.08,304.21,87.39,303.14Zm-10.32.95c0-.2,0-.41.05-.61.15-1.85.5-2.79,1.2-3.14,1.26-.63,4,.46,8.67,3.43,1.75,1.11,1.75,1.5,1.75,1.51C88.3,306,83,305.28,77.07,304.09Z" fill="#fff"/><path d="M162.38,303.15a9.21,9.21,0,0,0-6.47-1.6,25,25,0,0,1,.24-4.39c2.62-.42,4.79-1.55,5.66-3.05,1.34-2.35,1.3-6.2.32-7.71a1.36,1.36,0,0,0-1.3-.73c-1.19.12-2.5,2-3.9,5.52a25.87,25.87,0,0,0-1.44,5.31,14.07,14.07,0,0,1-1.85.09,16.19,16.19,0,0,1-8.15-2.46c2.38-1.23,4.16-2.6,4.86-4a3.21,3.21,0,0,0-.95-4c-3.35-3.23-8.88-7.59-12-8.13a2.11,2.11,0,0,0-1.64.26c-1.21.91-.67,3.43,1.67,7.87h0v0l.07.14A22,22,0,0,0,144,294a43.87,43.87,0,0,1-5.36,2c-5.78,1.76-12.34,2.73-16,2.23a5.58,5.58,0,0,1-2.79-1.13c5.21-4.08,13-10.69,12.11-13-.31-.76-1.33-1-3.12-.74a13.72,13.72,0,0,0-9.92,6.3,8.42,8.42,0,0,0-1.24,4.22,4.87,4.87,0,0,0,1,3.12c-1,.79-2,1.54-2.94,2.23l-.31.23.44.6.34-.25c.66-.48,1.66-1.23,2.85-2.15l.15-.11a6.17,6.17,0,0,0,3.29,1.4c3.75.52,10.35-.43,16.21-2.22a43.63,43.63,0,0,0,5.91-2.24,17,17,0,0,0,8.93,2.82,14.47,14.47,0,0,0,1.75-.07,25.88,25.88,0,0,0-.21,4.39,11,11,0,0,0-2.73.93,18.69,18.69,0,0,0-5.61,4.63,25.92,25.92,0,0,0-5.78-1.75,33.12,33.12,0,0,0-6.08-.56c-3.48,0-5.27.48-6,1.6-.88,1.36,0,3.39,1.29,6.21a47.4,47.4,0,0,1,2.76,7.37c.47,1.76,1.08,2.66,1.95,2.8h.22c1.68,0,3.61-2.94,6.23-6.94.73-1.11,1.5-2.27,2.3-3.44,1-1.5,2.13-3,3.29-4.36A11.69,11.69,0,0,1,151.8,312a5.29,5.29,0,0,1,.45,5.27l.69.29a6,6,0,0,0-.52-6,12.3,12.3,0,0,0-4.89-4,18,18,0,0,1,5.23-4.29,10.86,10.86,0,0,1,2.45-.85,21.87,21.87,0,0,0,.63,4c.87,3.36,2.46,5.82,4.38,6.76a4.11,4.11,0,0,0,3.51.05,3.87,3.87,0,0,0,2.41-3.25C166.37,307.67,164.83,304.86,162.38,303.15Zm-4.75-11.69c1.79-4.55,3-5,3.27-5H161c.11,0,.31,0,.54.39.84,1.3.82,4.89-.34,6.92-.74,1.28-2.6,2.25-4.89,2.66A25,25,0,0,1,157.63,291.46Zm-38.51,4.79a4.26,4.26,0,0,1-.65-2.35,6.93,6.93,0,0,1,.54-2.61c1.33-3.25,5-6.43,10-7.16a9.27,9.27,0,0,1,1.14-.09c.9,0,1.12.24,1.17.38.65,1.58-6,7.44-12,12.15A3.71,3.71,0,0,1,119.12,296.25ZM138.19,286c-.31-.59-.58-1.13-.82-1.62-2-4.18-1.49-5.22-1.14-5.48a1,1,0,0,1,.63-.17,2.69,2.69,0,0,1,.53.06c2.32.47,7.09,3.68,11.49,7.92a2.48,2.48,0,0,1,.79,3.11c-.67,1.38-2.47,2.71-4.89,3.89A21,21,0,0,1,138.19,286Zm5.19,25.77c-.91,1.3-1.77,2.61-2.57,3.83-2.3,3.5-4.48,6.8-5.71,6.6-.51-.09-1-.87-1.34-2.26a47.45,47.45,0,0,0-2.81-7.47c-1.16-2.61-2-4.49-1.34-5.51.55-.85,2.25-1.25,5.36-1.25a31.88,31.88,0,0,1,6.35.63,25.37,25.37,0,0,1,5,1.54C145.28,309.06,144.3,310.39,143.38,311.72Zm22-1.8a3.1,3.1,0,0,1-2,2.64,3.27,3.27,0,0,1-2.88,0c-1.72-.83-3.17-3.12-4-6.27a21.22,21.22,0,0,1-.62-4,8.54,8.54,0,0,1,6,1.49C164.18,305.33,165.6,307.86,165.39,309.92Z" fill="#fff"/><path d="M154.23,324.31c-.14-.44-.53-.56-3.74.22l-.14,0c-2.62.64-4.77,1-6.5,1.36-3.33.62-5,.93-5.44,2-.25.65,0,1.43.67,2.62-2.24.88-4.44,1.73-6.34,2.45l.26.7c2.43-.92,4.58-1.75,6.49-2.49.74,1.15,1.84,2.61,3.3,4.57l.28.37.6-.44-.28-.38c-1.36-1.82-2.44-3.27-3.19-4.4,5.87-2.29,9.3-3.76,11.3-4.73C154.39,324.84,154.3,324.52,154.23,324.31Zm-3.15,1.32c-2.63,1.2-7,3-11.29,4.67-.6-1-.84-1.65-.68-2.06.29-.73,2.11-1.07,4.87-1.58,1.78-.33,4-.74,6.68-1.4l.14,0c.91-.21,1.53-.34,2-.41C152.34,325,151.77,325.31,151.08,325.63Z" fill="#fff"/><path d="M179.7,344.1c-.44-4.26-2.34-7.34-5.09-8.23a6.06,6.06,0,0,0-2.73-.22c-.81-1.41-1.63-2.86-2.41-4.29l-.09-.11a14.4,14.4,0,0,1-3.1-3.56,84.07,84.07,0,0,0,9.59-9.58c.3-.4.57-.77.79-1.12-.09-.3-.17-.59-.25-.88a10.19,10.19,0,0,1-.86,1.25,85.44,85.44,0,0,1-9.63,9.65,7.05,7.05,0,0,1-.73-4.62c.67-3.13,3.86-5.68,9-7.18l.43-.12a6.31,6.31,0,0,1,1.44-.23h.06c-.07-.25-.12-.5-.17-.74a6.85,6.85,0,0,0-1.63.28l-.34.09c-5.4,1.58-8.77,4.33-9.5,7.74a7.81,7.81,0,0,0,.88,5.3c-1.42,1.24-2.89,2.5-4.36,3.72l.48.58c.77-.64,2.36-2,4.25-3.64a15.56,15.56,0,0,0,3.13,3.59c.59,1.08,1.37,2.5,2.25,4-1.88.44-4.21,1.64-7.05,4.19-.26.23-.52.47-.79.73a6.63,6.63,0,0,0-1.43-1.26c-4.18-2.75-11.34-1.27-18.67,3.86a16,16,0,0,0-3.46,3.11c.18.17.36.35.55.51a14.66,14.66,0,0,1,3.34-3c4.78-3.34,9.44-5.1,13.17-5.1a8.31,8.31,0,0,1,4.65,1.25,5.91,5.91,0,0,1,1.32,1.16c-.57.57-1.17,1.19-1.78,1.87A24.88,24.88,0,0,1,145,351.29c.25.23.5.46.74.7a25.48,25.48,0,0,0,15.73-8.39c.57-.64,1.13-1.22,1.67-1.76a8.88,8.88,0,0,1,.83,6.7c-1.61,7.86-3.31,8.85-7.83,11.49L154,361.3l.41.63c.76-.47,1.46-.88,2.12-1.26,4.6-2.68,6.51-3.79,8.19-12a9.66,9.66,0,0,0-1-7.38c.31-.3.62-.58.91-.84,2.83-2.53,5.09-3.65,6.86-4,2.76,4.74,6.27,10.14,7.65,9.73C179.81,346,179.79,345,179.7,344.1Zm-.79,1.38h0c-.82,0-3.66-4.16-6.59-9.13a5.33,5.33,0,0,1,2.07.23c2.47.8,4.18,3.64,4.59,7.6A2.55,2.55,0,0,1,178.91,345.48Z" fill="#fff"/><path d="M206.57,371.51a28,28,0,0,1-15.19-.55c3-1.83,4.91-3.73,5.2-5.31.17-.88-.07-2.11-2.14-3-5.34-2.17-15.35-3.38-16.68-.68a1.49,1.49,0,0,0-.13,1,12.67,12.67,0,0,0-1.38-.34c-7.23-1.37-12.61,1.89-15,5.1-1.82,2.44-2.3,5.1-1.26,7.11a5.33,5.33,0,0,0,2.74,2.44c-1.23.59-2.43,1.15-3.54,1.66q.07.38.18.75c1.28-.58,2.78-1.27,4.38-2.05a13.37,13.37,0,0,0,3.82.44c7.87-.14,17.06-3.21,23-6.64a29.2,29.2,0,0,0,16.11.78C206.63,372,206.6,371.76,206.57,371.51Zm-42.93,5.36a5,5,0,0,1-3-2.33c-.9-1.75-.45-4.12,1.2-6.32a13.83,13.83,0,0,1,11.06-5.12,17.41,17.41,0,0,1,3.21.31A9.68,9.68,0,0,1,178,364a8.28,8.28,0,0,0,1.5,1.62C179.47,368.39,171.08,373.21,163.64,376.87Zm3.9.5a13.85,13.85,0,0,1-2.75-.21c6.68-3.31,14.51-7.81,15.41-11.06a34,34,0,0,0,3.4,2.25,35.65,35.65,0,0,0,6,2.82C183.8,374.37,175,377.23,167.54,377.37Zm22.94-6.7a33.58,33.58,0,0,1-6.49-3,31.29,31.29,0,0,1-3.72-2.51,2.6,2.6,0,0,0-1.71-1.85,1.08,1.08,0,0,1-.13-1c.94-1.91,9.91-1.31,15.72,1.05,1.95.79,1.76,1.79,1.7,2.12C195.56,367,193.52,368.88,190.48,370.67Z" fill="#fff"/><path d="M180.92,382.72c-.21-.47-.83-.6-3.28.18-1.79.56-3.37,1-4.77,1.35-3.41.91-5.47,1.45-6,3-.36,1-.08,2.29,1.16,4.46l-.63.39c.21.18.42.34.63.49l.37-.23c.18.3.38.61.59.94h0c.58.4,1.12.74,1.58,1-.61-.89-1.12-1.68-1.54-2.38,2.23-1.4,4-2.57,5.52-3.56,1.69-1.14,2.95-2,3.88-2.75h0C181.26,383.46,181,383,180.92,382.72ZM175,387.19h0a0,0,0,0,0,0,0l-.78.53c-1.51,1-3.34,2.19-5.52,3.56-1.07-1.89-1.37-3-1.09-3.8.43-1.19,2.46-1.72,5.52-2.53,1.41-.37,3-.79,4.81-1.37a8.84,8.84,0,0,1,2.27-.52h0C179.85,383.64,178.28,384.94,175,387.19Z" fill="#fff"/><circle cx="114.75" cy="154.18" r="4.21" fill="#ff534a"/><rect x="214.01" y="113.91" width="26.2" height="42.41" transform="matrix(0.5, -0.87, 0.87, 0.5, -3.46, 264.24)" fill="#fe4877"/><polygon points="250.44 133.17 208.14 207.26 135.93 214.24 136.97 181.55 194.81 183.26 212.81 151.36 207.88 131.35 210.85 128.71 215.38 145.97 218.16 141.34 218.19 141.28 229.58 119.4 233.16 121.13 222.3 141.65 224.4 142.86 235.88 121.52 239.5 122.74 227.97 144.91 230.48 146.35 241.12 124.19 244.75 126.65 233.95 148.35 236.9 150.04 246.33 131.2 250.44 133.17" fill="#ffcb39"/><rect x="206.32" y="108.9" width="3.75" height="30.57" rx="1.87" transform="translate(89.99 -87.46) rotate(30)" fill="#ffcb39"/><path d="M110.45,169.25h36.92a0,0,0,0,1,0,0V208a17.47,17.47,0,0,1-17.47,17.47h-2A17.47,17.47,0,0,1,110.45,208V169.25a0,0,0,0,1,0,0Z" transform="translate(323.17 63.82) rotate(88.64)" fill="#fe4877"/><circle cx="116.54" cy="192.34" r="2.94" fill="#ffcb39"/><circle cx="136.33" cy="201.44" r="3.41" fill="#ffcb39"/><circle cx="114.02" cy="207.32" r="1.9" fill="#ffcb39"/><circle cx="153.5" cy="210.26" r="1.34" fill="#161730"/><circle cx="149.42" cy="189.58" r="2.59" fill="#161730"/><circle cx="125.46" cy="208.7" r="1.68" fill="#161730"/><circle cx="126.53" cy="195.95" r="1.63" fill="#161730"/><circle cx="104.44" cy="198.6" r="1.23" fill="#161730"/><circle cx="127.26" cy="184.82" r="0.9" fill="#161730"/></svg>