<svg id="Capa_1" data-name="Capa 1" xmlns="http://www.w3.org/2000/svg" viewBox="0 0 543.12 401.7"><title>Mesa de trabajo 90</title><path d="M168.84,116.5l16.25-3.12-.28,3.42L169.43,120l.48,2.8,14.12-2,.8,3.5-14.28,2.18-1.89.29-.75.09-14.06,1.78h0L77.33,146.8c-6.8,1-13.88-5.41-15.81-14.42-1.82-8.48,1.56-16.18,7.61-17.95a9.47,9.47,0,0,1,1.2-.26l79.7-7.39h0l7.87-1.56,7.91-13.41,2.75.92-6.7,11.75,20.23-2.34.79,3.51-15.71,1.19.59,3.49,16.4-1.83.7,2.12L168.24,113Z" fill="#fd925a"/><path d="M151,100.21c.71,2.85,7.84,32.43,7.84,32.43l-63.45,21-3.56-39.21Z" fill="#ffcb39"/><path d="M108.09,47.79,108,48c-.91,1.58-3.54,1.26-5,1.73L97,51.59c-.74.24-7.43,1.74-7.58,2.44-.74,3.16-1.48,6.34-2.21,9.5-.92,3.91-.94,7.58-3.1,11-.13.19-.25.39-.39.58-3.7,5.25-11.4,9.6-17.64,10.82-3,.58-6.17.12-9.21.72-7.55,1.47-14.81,5-21.66,8.44-.82.41-11.32,5.14-11.32,6l-1-5.62L42,84.06,22.63,93.81,19.46,76.05l21.71-8.16L19,73.54,16.83,61.27l24.34-4.8-25.12.45L14.13,46.15A210.23,210.23,0,0,0,36.38,48.2c6.38.19,14.83,1.7,21.1.26,2.87-.66,5.13-2.5,7.3-4.39a29.79,29.79,0,0,1,19.71-6.85,35.71,35.71,0,0,1,10.23,1.43,47.71,47.71,0,0,1,7.73,2.76C104.25,42.32,109.33,45.06,108.09,47.79Z" fill="#ffcb39"/><polygon points="56.08 217.12 62.77 336.55 86.08 336.55 95.44 217.57 56.08 217.12" fill="#fd925a"/><path d="M58.84,369.11l71.68-.09h0c.13-8.41-9.66-11.5-18-12.32l-24.78-6.78,1-17.73-28.37-1.72Z" fill="#6562be"/><path d="M93.62,304.35l-39.27-.61s-8.45-11.19-2-24.26,1.11-24.17-2.2-35.25-5.16-23.39.66-33.44,1.54-23-.43-30.75,1.66-21.32,1.66-21.32l49.17,15.38s3.46,47.76-1.68,57.14-4.32,30.78-3.49,40.1S101.21,293.54,93.62,304.35Z" fill="#161730"/><polygon points="96.46 227.46 151.44 335.13 170.56 326.32 132.8 212.34 96.46 227.46" fill="#fd925a"/><path d="M159,366l65.82-28.38h0c-3.2-7.78-13.42-6.75-21.43-4.21L178,337l-6.07-16.69-26.74,9.61Z" fill="#6562be"/><path d="M165.39,292.79l-36.33,14.95s-12.18-6.95-11.39-21.51-8.52-22.65-15.94-31.52-14-19.45-12.59-31-7.7-21.78-12.54-28.08-6.89-20.24-6.89-20.24L121,170.12s22,42.51,21,53.16,8.18,30,12.62,38.22S168.09,279.86,165.39,292.79Z" fill="#161730"/><path d="M95.92,83.84a17.39,17.39,0,0,1,1.69.43c11.15,3.45,18.78,21.84,23.29,34.28,2.55,7,12.69,66.86,12.69,66.86l-86.5.72c-1.24,0,1.15-38.41,1.42-41.09,2.18-21.32,7.35-49,24-57.6C78.6,84.31,88.8,82.39,95.92,83.84Z" fill="#fe4877"/><path d="M104.11,66.78A10.39,10.39,0,0,1,93.77,77.22l-.61.09c0,.64,0,1.28,0,1.92l0,4.65c0,1,.4,2.14-.18,3.05a5.86,5.86,0,0,1-2.45,1.74c-2.52,1.12-8.15,1.11-8.17-2.86l-.06-13L80.94,51.2l23.1-.11Z" fill="#fd925a"/><path d="M103.5,55.75c1.49,0,4.89,9.66,4.89,9.66l-4.84,0Z" fill="#ff534a"/><circle cx="94.23" cy="64.36" r="3.73" fill="#ff534a"/><path d="M96.59,57a.45.45,0,0,1,.11-.14,1.55,1.55,0,0,1,.73-.31c1.17-.25,4.15-1,4.59.73.35,1.37-1.59,1.17-2.61,1.13S95.89,58.23,96.59,57Z" fill="#fff"/><path d="M100.08,56.14s-1.18.82,0,2.27c0,0,2.31.32,1.93-1.17A1.57,1.57,0,0,0,100.08,56.14Z" fill="#0c0604"/><path d="M95.68,56.53s6.33-.78,6.33-1.15.36-1.86-.75-1.86-6.7,1.9-6.33,2.27S94.93,56.16,95.68,56.53Z" fill="#161730"/><path d="M102.17,70.46a2.75,2.75,0,0,1-2.26-1l.59-.47c1.11,1.42,3.06.45,3.08.44l.34.67A4,4,0,0,1,102.17,70.46Z" fill="#0c0604"/><path d="M89.6,48,91,55.77l19.56-1.86s2.69-15.4-10-13.89-21.24-1.48-20.78,8.27l1.12,8.87,8.53-1.27Z" fill="#ffcb39"/><path d="M87.3,51.94S86,70.13,90.09,75.57c0,0-2.81-15.16,1-26.88C91.1,48.69,82.73,39.47,87.3,51.94Z" fill="#ffcb39"/><circle cx="83.54" cy="58.41" r="4.28" fill="#fd925a"/><path d="M85.22,60.49l-.75-.08a2.39,2.39,0,0,0-.5-2,2.28,2.28,0,0,0-1.7-.5l-.09-.75a3.17,3.17,0,0,1,1.95.43,1.78,1.78,0,0,0,.05-1.23.5.5,0,0,0-.26-.3l.24-.71a1.22,1.22,0,0,1,.69.67,2.77,2.77,0,0,1-.12,2.13A3.37,3.37,0,0,1,85.22,60.49Z" fill="#0c0604"/><path d="M59,368.58s-1.16,12.54,3.55,8.44,6.79-5.83,8.88-3.81S77.15,378.56,79,375s3.49,2,9.32.77,4-4.35,5.68-3.84-.2,6.65,5.07,4.35,4.22-5.63,7.1-4.61,5.75,8.23,11.23,1.56,5.75,8.27,8.89,4.64,4.25-9.18,4.25-9.18Z" fill="#fe4877"/><path d="M158.5,364.68s3.85,12,6.59,6.38,4-8.05,6.7-7,7.4,2.66,7.68-1.35,4,.5,8.91-3,2-5.56,3.73-5.76,2.43,6.19,6.39,2,1.68-6.83,4.74-7,8.53,5.3,11-3,8.55,5.34,10,.76.33-10.11.33-10.11Z" fill="#fe4877"/><circle cx="61.21" cy="169.8" r="9.25" fill="#ffcb39"/><circle cx="62.49" cy="148.74" r="1.8" fill="#ffcb39"/><circle cx="94.23" cy="171.91" r="5.98" fill="#ffcb39"/><circle cx="84.86" cy="158.72" r="1.83" fill="#ffcb39"/><circle cx="123.03" cy="174.52" r="2.93" fill="#ffcb39"/><circle cx="82.23" cy="142.9" r="2.04" fill="#ffcb39"/><circle cx="99.67" cy="94.12" r="4.68" fill="#ffcb39"/><circle cx="74.71" cy="92.43" r="1.69" fill="#ffcb39"/><circle cx="56.08" cy="130.15" r="1.74" fill="#ffcb39"/><path d="M291.29,136.18l.95,2.85L274,146.09l.37,1.83L293,141.25l.93,2.83-13.07,4.21L275.65,150l-.07,0,0,0,1.95,2.24.79-.24,16.51-5.08.75,2.25-15.26,5.56.95,2.86,15.31-5.41L371.2,129.3l28.29-8.11a14,14,0,0,0,8.56-17.85,13.44,13.44,0,0,0-1.74-3.37,14,14,0,0,0-16.11-5.19l-6.41,2.59L298.57,131l-8.05,2.83-17.59,6.74.95,2.86Z" fill="#fd925a"/><polygon points="383.61 224.1 326.46 334.54 306.56 324.59 346.8 208.18 383.61 224.1" fill="#fb9159"/><polygon points="450.28 251.96 484.66 314.64 470.73 330.56 415.83 265.52 405.69 212.98 442.56 207.45 450.28 251.96" fill="#fb9159"/><path d="M317.94,364.39l-66.66-29.85h0c3.37-7.87,13.76-6.69,21.89-4l25.87,4,6.42-16.92,27.11,10.18Z" fill="#161730"/><path d="M317.94,364.39s-6,10.95-9.95,6-5-8.95-8.95-8.95-13.93,0-14.93-5a9.16,9.16,0,0,0-10.94-7c-5,1-9.95,1-10.95-5s-10-3-10.94-4,0-6,0-6Z" fill="#fe4877"/><path d="M332.87,328.57s-13.93,0-14.93,7-4,18.9-9.95,17.91-5.48,4-5.48,4l15.43,6.91Z" fill="#ffcb39"/><rect x="299.16" y="334.89" width="0.75" height="10.24" transform="translate(-127.55 188.58) rotate(-29.1)" fill="#ffcb39"/><rect x="289.21" y="334.62" width="0.75" height="9.8" transform="translate(-112.93 146.87) rotate(-23.96)" fill="#ffcb39"/><path d="M485.1,304.69,509.48,340l-14.93,31.84-52.73-1s5-12.94,17.91-11.94,17.91,1,17.91,1l-2-18.9-11.44-14.43Z" fill="#161730"/><path d="M510,339.52s7,7,2,9,2,5-1,7-6,0-5,3,2,8-1,8-3,2-3,6-2,8-8,5-2,0-7,1-5-2-8.95-3-1,5-7,3-7-5-8.95-4,0,3-6,2-4-4-7-3-3,5-6,3-1-6-1-6h52.73Z" fill="#fe4877"/><path d="M502.71,354s-15.62-10.46-12.63-17.43-2-12.93-3-16.91-1-10.36,3-8L510,339.52Z" fill="#ffcb39"/><path d="M462.72,370.36h-20.4a16.53,16.53,0,0,1,15.42-11.48S464.21,366.38,462.72,370.36Z" fill="#ffcb39"/><rect x="479.71" y="341.22" width="0.75" height="8.05" transform="translate(106.69 803.78) rotate(-86.56)" fill="#ffcb39"/><rect x="480.78" y="347.04" width="0.75" height="8.94" transform="translate(83.74 795.5) rotate(-84.32)" fill="#ffcb39"/><rect x="481.24" y="353.42" width="0.75" height="8.02" transform="translate(66.8 790.59) rotate(-82.82)" fill="#ffcb39"/><path d="M514.53,371.82a12.08,12.08,0,0,0,1.47-.09c15-2,16.19-7.05,16.24-7.27l-.74-.14s-1.24,4.75-15.6,6.66c-14.52,2-33.28-28.37-33.46-28.68l-.64.4C482.55,343.92,499.83,371.82,514.53,371.82Z" fill="#ffcb39"/><path d="M316,279.32l5.51,2,27.41,9.83,5.89,2.12c3.18,1.14,8.29-12,8.78-13.91.91-3.43,1.62-6.74,2.37-10,.06-.28.12-.55.19-.83,1.38-5.94,2.92-11.64,6-17.39.12-.23.24-.46.38-.69s.37-.67.57-1c4.05-6.87,10-12.89,13.41-20.05,1.76-3.69,2.08-5.58,2-8,0-.29,0-.59,0-.9-.08-1.19-.22-2.56-.32-4.33-.31-5.33-.22-13.31,3.14-17.9,1,2.75,2.19,5.73,3.41,8.81.2.51.4,1,.61,1.55,3.16,8,6.68,16.32,9.75,22.47a78.12,78.12,0,0,1,3.64,8.63c.1.37.19.73.28,1.08s.21.91.3,1.36c.06.26.1.51.14.77,1.33,7.66-.15,15.58,2.17,23.16a26.06,26.06,0,0,0,1.67,4.08c.12.24.25.47.38.71,2.68,4.93,6.74,9.13,10.42,13.34l.77.9.06.06c.88,1,11.6,18.76,13,17.55l5.11-5,11.3-11,4.36-4.24,5.46-5.3c5.7-5.56,10.07-9.81,10.09-9.82,1.81-1.57-5.09-9.63-8.76-13.73l-.52-.58c-.74-.83-1.3-1.43-1.52-1.69-6.72-7.74-10.93-12.83-13.09-23.34-.15-.7-.27-1.41-.38-2.11,0-.26-.08-.52-.11-.78-1.11-8.15-.07-16.53.29-24.71l0-.76c.35-9.05-.25-17.84-5.63-25.83a32.29,32.29,0,0,0-3.15-4l-31.18-3.42h0l-30.13-3.3-5.73-.63-5.58-.61c-2.1,1.8-4.17,3.68-6.14,5.65-.74.74-1.47,1.49-2.19,2.26l-.06.07c-.21.22-.42.44-.61.67s-.25.26-.37.4c-1.06,1.18-2.09,2.38-3.07,3.62a57,57,0,0,0-7.7,12.63c-.12.26-.23.53-.34.8a45,45,0,0,0-2.08,6.32c-1.45,5.81-2.18,11.79-3.41,17.65-1.32,6.19-4.37,8.81-8.48,13a63.92,63.92,0,0,0-9.49,13.23C317.86,250.25,312.51,265.31,316,279.32Z" fill="#161730"/><path d="M360.29,167.38l.83.06,1.49.12,11.44.88,5.81.44,7.72.6,56.95,4.37,6.3.49s-11.41-52.25-13-58.31C435,105.31,430,89.38,420.39,85.49q-.7-.28-1.47-.51a28.25,28.25,0,0,0-6.47-1,43.63,43.63,0,0,0-11,.84,28.35,28.35,0,0,0-3.71,1c-5.65,2-10.2,6.2-13.91,11.57-6.2,9-10,21.22-12.59,31.93-.16.66-.31,1.32-.46,2-.27,1.17-3.54,11.31-6.36,20.54l-.66,2.17c-.06.19-.11.38-.17.58-1.36,4.51-2.52,8.55-3.05,10.84C360.22,166.64,360.13,167.36,360.29,167.38Z" fill="#ffcb39"/><path d="M390.24,50.81v16a10.59,10.59,0,0,0,10.59,10.59l.61.09v6.69c0,1-.4,2.18.2,3.11a6.06,6.06,0,0,0,2.51,1.77c2.57,1.12,8.3,1.09,8.3-3V72.81l1.33-22Z" fill="#fb9159"/><path d="M390.81,55.56c-1.52,0-4.93,9.87-4.93,9.87h4.93Z" fill="#ff534a"/><circle cx="400.3" cy="64.29" r="3.8" fill="#ff534a"/><path d="M397.86,56.76a.45.45,0,0,0-.11-.14,1.52,1.52,0,0,0-.75-.31c-1.19-.25-4.23-1-4.67.77C392,58.47,394,58.26,395,58.22S398.58,58.05,397.86,56.76Z" fill="#fff"/><path d="M394.3,55.94s1.21.83,0,2.31c0,0-2.35.35-2-1.17A1.6,1.6,0,0,1,394.3,55.94Z" fill="#0c0604"/><path d="M398.78,56.32s-6.45-.76-6.45-1.14-.38-1.9.76-1.9,6.83,1.9,6.45,2.28S399.54,55.94,398.78,56.32Z" fill="#161730"/><path d="M392.22,70.54a2.79,2.79,0,0,0,2.3-1.08l-.59-.47c-1.13,1.45-3.12.48-3.14.47l-.34.67A4.12,4.12,0,0,0,392.22,70.54Z" fill="#33270a"/><circle cx="409.98" cy="59.69" r="4.37" fill="#fb9159"/><path d="M408.28,62.81l.75-.08a2.42,2.42,0,0,1,.51-2.1,2.32,2.32,0,0,1,1.73-.52l.09-.75a3.11,3.11,0,0,0-2.21.62,2,2,0,0,1-.07-1.3.53.53,0,0,1,.27-.3l-.24-.71a1.25,1.25,0,0,0-.7.68,3,3,0,0,0,.19,2.3A3.58,3.58,0,0,0,408.28,62.81Z" fill="#0c0604"/><path d="M323.06,246.62c.23,1,1.2,1.72,2.77,2.29l.83.27c1.22.37,2.72.71,4.43,1.09l1.07.24a68.5,68.5,0,0,1,9.74,2.84c-7.42,9.61-10.46,20.52-7.79,25.28a3.84,3.84,0,0,0,.32.5l0,0,.45.54a5.54,5.54,0,0,0,4.23,1.63,13,13,0,0,0,3.85-.67q3-.94,5.48-2l.75-.33q.73-.32,1.41-.66c.31-.15.61-.3.9-.46a16.63,16.63,0,0,0,6.2-5,7.7,7.7,0,0,0,.61-1.07,6.55,6.55,0,0,0,.62-2c.55-4-2.79-8.42-9.91-13a37.22,37.22,0,0,0-5.92-3.09,49.56,49.56,0,0,1,6-6.27,67.53,67.53,0,0,0,7.69-7.92,6.89,6.89,0,0,0,.49-.61,64.73,64.73,0,0,0,11.25-20.67c.21-.63.41-1.26.59-1.89l.21-.73a64,64,0,0,0,2.31-20.28c0-.15,0-.29,0-.44,0-.31,0-.62-.05-.92h0a95.39,95.39,0,0,0-1.62-13.41c-.05-.26-.11-.52-.16-.77a39.6,39.6,0,0,0-1.8-6.18c-.05-.13-.1-.26-.15-.37l-.28-.65a9.44,9.44,0,0,0-1-1.78l-.58.47a8.28,8.28,0,0,1,.51.87c.14.26.29.59.47,1,0,.08.07.16.11.25a37,37,0,0,1,2,6.63c.06.25.11.51.16.78a94.23,94.23,0,0,1,1.66,14.14c0,.06,0,.11,0,.17,0,.41,0,.8.05,1.21h0a63.33,63.33,0,0,1-2.37,19.25c-.06.25-.13.49-.21.73-.15.54-.32,1.09-.51,1.63a64.37,64.37,0,0,1-11.1,20.47l-.48.59a67.64,67.64,0,0,1-7.65,7.88,50.24,50.24,0,0,0-6.22,6.53,68.52,68.52,0,0,0-10-2.93l-1.16-.26c-1.83-.41-3.49-.79-4.78-1.22h0c-.3-.1-.58-.2-.84-.31-1-.42-1.68-.91-1.82-1.55a3.17,3.17,0,0,1,.92-2.38,7.42,7.42,0,0,1,.54-.65,61.07,61.07,0,0,1,8.89-7.59q2.21-1.65,4.22-3.29,4.61-3.7,8.22-7.24l.61-.58a81.34,81.34,0,0,0,7.3-8.13l.68-.92c.77-1,1.45-2.05,2-3,2.56-4.14,3.53-7.49,2.95-9.67a3.58,3.58,0,0,0-3.32-2.66l-.09.74a2.84,2.84,0,0,1,2.68,2.12c.53,2-.44,5.2-2.92,9.17-.71,1.13-1.54,2.33-2.5,3.58-.24.32-.5.64-.76,1a80,80,0,0,1-6.23,6.9l-.64.64c-2.23,2.17-4.75,4.44-7.55,6.74q-2.43,2-5.14,4C325.59,241.31,322.61,244.5,323.06,246.62Zm19.59,7a36.38,36.38,0,0,1,6,3.11c6.86,4.43,10.08,8.57,9.57,12.29a6.32,6.32,0,0,1-1,2.63h0a9.11,9.11,0,0,1-1.1,1.38,17.13,17.13,0,0,1-3.78,2.88c-.42.26-.87.51-1.34.75s-1.13.57-1.74.85l-.75.33a58.34,58.34,0,0,1-5.7,2.09c-3.93,1.23-6.7.65-8-1.69C332.22,273.73,335.45,263,342.65,253.64Z" fill="#fff"/><path d="M361.48,183.57l.6.45s1.74-2.17,7.12-3.9l.74-.24c1.19-.35,2.54-.68,4.07-1l.76-.14a82.66,82.66,0,0,1,19.82-.57c3.5.26,6.82.45,10,.63,13.47.77,24.11,1.38,26.87,6.36,1.45,2.62.75,6.51-2.12,11.88-3.83.13-6.82,1-8.85,2.45h0a5,5,0,0,0-.57.46,6.86,6.86,0,0,0-2.06,3.08,10.15,10.15,0,0,0,.62,7.05q-.63.58-1.26,1.14c-.92.83-1.83,1.63-2.72,2.42a81.48,81.48,0,0,0-7.34,7c-2.31,2.66-3.65,5.2-3.14,7.73.45,2.27,2.37,4.41,5.89,6.51a51.56,51.56,0,0,0,7.62,3.59q-3.36,1.44-6.39,2.79l-1.88.85c.06.26.1.51.14.77.62-.29,1.25-.57,1.89-.85,2.34-1.06,4.77-2.12,7.25-3.18.89.33,1.82.67,2.8,1a70.32,70.32,0,0,1,19.58,10.25c-3.16,2.5-7.07,5-11.08,7.56a128.4,128.4,0,0,0-13,9.05c-.93.78-1.81,1.57-2.61,2.37-.35.35-.68.7-1,1,.12.24.25.47.38.71.34-.4.73-.81,1.14-1.22.78-.78,1.64-1.56,2.56-2.33a127.14,127.14,0,0,1,12.92-9,136,136,0,0,0,11.29-7.72c1.13.87,2.2,1.76,3.22,2.66.19.17.38.33.56.51a50.59,50.59,0,0,1,4.49,4.56c.19.21.37.41.54.62,6.58,7.77,9.42,15.83,8.26,21.32-1,4.83-5,7.2-11.24,6.64l-.38,0c-4.86-.43-9.76-.85-14.32-1.4-3.07-.36-6-.78-8.62-1.28l.77.9c2.65.48,5.53.87,8.55,1.22h0c4.35.51,9,.91,13.54,1.31l.39,0c.59.05,1.16.08,1.71.08a13.16,13.16,0,0,0,5.28-1,8.25,8.25,0,0,0,4.36-4.24,9.58,9.58,0,0,0,.69-2.08c1.18-5.6-1.65-13.77-8.23-21.67-.16-.21-.34-.41-.52-.62a57.11,57.11,0,0,0-4.88-5l-.56-.51c-1-.84-2-1.68-3-2.5,3.28-2.7,5.67-5.43,6.38-8.28v0a6.82,6.82,0,0,0,.23-1.9,7.72,7.72,0,0,0-1.23-3.89,0,0,0,0,1,0,0c-1.28-2.09-3.6-4.15-7-6.21l5.53-2.26,1-.41.7-.29,2.19-.91c0-.26-.08-.52-.11-.78l-2.48,1-.69.29-.76.31-6.2,2.54-.13-.08c-10.63-6.13-17.12-12.84-19.83-18.37-.11-.21-.21-.41-.3-.62a73.48,73.48,0,0,0,6.14-6.33l.45-.55a37.64,37.64,0,0,0,3.73-5.46l.06-.11h.67a43,43,0,0,1,4.87.3c5.41.62,10.37,1.42,14.76,2.34l0-.76c-6-1.24-11.64-2-14.71-2.33a44.48,44.48,0,0,0-5.22-.3c2.88-5.49,3.48-9.39,1.91-12.22-3-5.35-13.24-5.94-27.47-6.75-3.21-.18-6.53-.37-10-.63a82.72,82.72,0,0,0-20.19.6l-.77.14c-1.46.27-2.75.59-3.9.92l-.74.23C363.4,181.13,361.61,183.4,361.48,183.57Zm58.08,54.87c6.21-2.64,12.65-5.26,18.47-7.63l1.62-.66c5.55,3.28,8.28,6.48,8.35,9.77s-2.54,6.53-6.47,9.73a70.89,70.89,0,0,0-19.93-10.49Zm-1-27.39.24-.22.08.17c2.87,6,10,12.88,19.93,18.68l-1.08.44c-7,2.83-13.42,5.48-19.21,7.94a50.43,50.43,0,0,1-8.8-4.13c-3-1.86-4.57-3.73-5-5.68-.43-2.12.65-4.32,2.58-6.65a75.42,75.42,0,0,1,7.66-7.37C416.18,213.21,417.38,212.15,418.58,211.05ZM429,197.83a35.54,35.54,0,0,1-3.52,5.09l-.44.54a69.52,69.52,0,0,1-5.84,6,9.26,9.26,0,0,1-.55-6.22,6.19,6.19,0,0,1,2-2.89,5.39,5.39,0,0,1,.59-.45A15.25,15.25,0,0,1,429,197.83Z" fill="#fff"/><path d="M346.39,224.46a8.71,8.71,0,0,0,.2.85c1.15,4,5,8.57,9.66,13l.53.52a150.43,150.43,0,0,0,13.53,11l1.86,1.33c.12-.23.24-.46.38-.69-.61-.42-1.23-.87-1.87-1.35a150.13,150.13,0,0,1-13.41-10.87l-.54-.5c-4.78-4.51-8.62-9.15-9.53-13a6,6,0,0,1-.17-.91,5.69,5.69,0,0,1,.13-2.15c.58-2.14,2.62-3.73,6.1-4.75.39-.12.81-.23,1.24-.32a44.25,44.25,0,0,1,8.6-1l.81,0c1.53,0,3,0,4.43.06l.77,0a42.35,42.35,0,0,1,19.41,5.69c0-.29,0-.59,0-.9a43.34,43.34,0,0,0-19.15-5.52c-.25,0-.51,0-.77,0-1.75-.1-3.58-.12-5.48-.06l-.77,0a46.6,46.6,0,0,0-7.12.81c-.4.09-.79.17-1.16.27-4.34,1.08-6.88,2.93-7.58,5.52A6.53,6.53,0,0,0,346.39,224.46Zm6.82,58.38a22.45,22.45,0,0,0,4.42,2.78L358,285a21.52,21.52,0,0,1-4.4-2.8c-1.69-1.44-2.44-2.9-2.21-4.29a2.87,2.87,0,0,1,.17-.62,4.58,4.58,0,0,1,.77-1.31,12.13,12.13,0,0,1,3.78-2.88c.51-.28,1.06-.55,1.65-.82.4-.19.82-.37,1.26-.55a61.91,61.91,0,0,1,7-2.32c.06-.28.12-.55.19-.83a62.24,62.24,0,0,0-6.65,2.15c-.4.15-.8.31-1.17.48l-1.15.51h0c-3.29,1.55-5.41,3.24-6.22,5a4,4,0,0,0-.33,1,.06.06,0,0,0,0,0C350.33,279.46,351.2,281.17,353.21,282.84ZM394.7,207c.2.51.4,1,.61,1.55.21-2.19.43-4.47.68-6.84.44-4.28,2.33-6.83,5.61-7.57,4.67-1.06,11.37,1.41,18.34,5.8l.66.42c1.46.95,2.93,2,4.39,3.06l.6.46c2.1,1.59,4.17,3.32,6.19,5.15a86.21,86.21,0,0,1,13.78,15.68q.57.84,1.08,1.68l0,0,.39.66c3.63,6.13,6.73,14.27,2.36,19.86l-.2.25a54.22,54.22,0,0,0-4.05,5.37c-.15.22-.28.43-.4.64-1.57,2.6-1.95,4.35-1.19,5.36.87,1.17,3.2,1.19,6.78.33l.77-.19c.77-.21,1.6-.45,2.48-.72,3.27-1,7.25-2.52,11.85-4.38l-.52-.58c-4.3,1.73-8.33,3.26-11.69,4.3-.94.29-1.82.55-2.64.76l-.79.19c-2.94.68-5,.73-5.64-.16-.42-.57-.4-1.79,1.15-4.4l.4-.64a52.18,52.18,0,0,1,3.86-5.15l.2-.25c3.94-4.73,3.24-11.94-2-20.88-.13-.22-.26-.44-.4-.66a1,1,0,0,0-.08-.14c-.63-1-1.3-2-2-3.08a88.07,88.07,0,0,0-12.55-14c-2.16-2-4.4-3.84-6.66-5.56l-.61-.45c-1.41-1.06-2.83-2-4.24-3l-.67-.43h0c-7.24-4.59-14.22-7.17-19.08-6.07-3.63.82-5.71,3.59-6.19,8.22Q395,204.43,394.7,207Z" fill="#fff"/><path d="M348.27,188c4.78,5.26,11,10.63,16.37,10.76h.2a7.53,7.53,0,0,0,6.08-3.13h0a10.73,10.73,0,0,0,.71-1c.14-.23.29-.48.43-.73,3.38-6,4.3-11.11,2.71-15.16a6.58,6.58,0,0,0-.32-.72,3.42,3.42,0,0,0-.21-.43,12.9,12.9,0,0,0-5.66-5.22c-.33-.17-.68-.33-1-.49s-.7-.31-1.07-.44a28.61,28.61,0,0,0-6-1.56.12.12,0,0,0-.08,0c-.21.22-.42.44-.61.67.29,0,.57.08.85.13l.24,0c.52.08,1,.18,1.52.3a24.74,24.74,0,0,1,4.59,1.43l.43.19.6.28a12.33,12.33,0,0,1,5.6,5,2,2,0,0,1,.1.21,5.76,5.76,0,0,1,.33.72c1.56,3.79.73,8.62-2.45,14.38h0l-.15.26a9.18,9.18,0,0,1-.54.87,7.16,7.16,0,0,1-6.21,3.6c-5.19-.13-11.35-5.58-16.05-10.82C348.49,187.47,348.38,187.74,348.27,188Z" fill="#fff"/><path d="M266.86,328.44s2.16,12.64,0,12.95-17.09-7.65-17.09-7.65S252.11,325.12,266.86,328.44Z" fill="#ffcb39"/><polygon points="281.71 127.39 294.99 132.73 299.11 131.24 283.98 125.41 281.71 127.39" fill="#fd925a"/><path d="M382.56,56.32a3.32,3.32,0,0,0,6.62.37h1.13a3,3,0,0,0-.07.66,3.32,3.32,0,0,0,6.64,0,3.22,3.22,0,0,0-.2-1.12L410,55.7l0-.75-13.66.54a3.32,3.32,0,0,0-5.75.45h-1.39a3.32,3.32,0,0,0-6.61.38Z" fill="#161730"/><path d="M385,45.12a8.47,8.47,0,0,0,12.9,7.22,17.62,17.62,0,1,0,2-12.7A8.47,8.47,0,0,0,385,45.12Z" fill="#161730"/><path d="M260.77,134a22.33,22.33,0,0,1-20.44,22.25V202H193.5a22.33,22.33,0,0,0-44.65,0H103.46V65.12h45.39a22.33,22.33,0,0,1,44.65,0h46.83v46.67A22.32,22.32,0,0,1,260.77,134Z" fill="#161730"/><path d="M380.32,65.45V202.33H334.93a22.33,22.33,0,0,0-44.65,0H243.45V156.61c.62.06,1.26.09,1.9.09a22.34,22.34,0,0,0,0-44.67c-.64,0-1.28,0-1.9.09V65.45h46.83a22.33,22.33,0,0,1,44.65,0Z" fill="#fe4877"/><path d="M411.05,166.34l28.08-3.64-11.35-54.17a13.89,13.89,0,0,0-16.5-10.69h0a13.91,13.91,0,0,0-10.7,16.5Z" fill="#fb9159"/><polygon points="358.49 160.38 340.41 163.6 340.42 165.46 358.95 162.62 359.05 163.1 359.3 164.33 359.54 165.51 358.66 165.62 357.74 165.73 341.18 167.68 342.67 170.27 356.12 168.86 357.04 168.77 360.14 168.44 360.42 169.82 360.44 169.91 360.6 170.69 360.62 170.77 359.38 170.96 355.55 171.56 354.59 171.71 344.92 173.23 345.3 176.2 352.65 175.12 353.65 174.97 356.31 174.58 436.34 162.95 430.53 135.75 367.2 153.59 364.38 151.81 354.07 145.33 351.48 146.83 362.74 154.15 340.39 158.03 340.77 161 357.9 157.49 358.49 160.38" fill="#fb9159"/><polygon points="184.57 154.36 170.84 158.5 175.9 161.3 175.86 161.37 192.66 169.48 191.44 172.26 174.76 163.46 173.34 166.14 191.05 174.91 190.51 176.72 172.24 168.23 170.73 171.1 188.91 178.8 186.61 181.01 169.24 173.92 168.05 176.16 183.42 183.38 182.14 186.31 148.59 169.75 153.33 151.1 166.45 156.6 182.36 152.05 184.57 154.36" fill="#fd925a"/><path d="M161,147.88,151.6,176l-43.85-14.6-10-3.33-2.61-3.56L62,116a13.9,13.9,0,0,1,2.11-20.07,15.14,15.14,0,0,1,7.07-3.12,15,15,0,0,1,13.79,4.86l19.15,22.28,10.7,12.59,18.39,6.13Z" fill="#ffcb39"/><path d="M248.29,317.63c2.65.37,10.84,1.94,14.9,7.52,0,0-13.91,4.63-15.64-6.69-9.31,10.8-6.55,21.2-6.51,21.33l-.72.21a20.29,20.29,0,0,1-.22-7.4c-2,.65-12.08,3.35-19.37-3.81,0,0,12.4-2.3,19.42,3.43.78-5.08,3.43-12,11.16-18.52-2-.92-11.84-6-11.41-14.74,0,0,12,.8,11.76,14.45a48.65,48.65,0,0,1,4.5-3.31c6.61-4.32,9.59-7.27,9.67-9.59.08-2.1-2.18-3.81-5.3-6.18a43.16,43.16,0,0,1-9.53-9.1l.61-.44a42.21,42.21,0,0,0,9.38,8.94c3.17,2.41,5.68,4.32,5.59,6.81s-3.08,5.66-10,10.19l-.37.25c11-.54,13.54,5.86,13.54,5.86-5.08,2.74-12.42-3.5-14.37-5.3A42.06,42.06,0,0,0,248.29,317.63Z" fill="#ffcb39"/><path d="M253.06,266.67S248.11,275.39,251,279,257.89,271.39,253.06,266.67Z" fill="#6562be"/><path d="M250.45,284.7s-4.95,8.73-2,12.38S255.28,289.43,250.45,284.7Z" fill="#6562be"/><path d="M247.93,282.44s-7.38-6.79-11.59-4.8S242.23,286.08,247.93,282.44Z" fill="#6562be"/><path d="M254.28,284.08s9.31,3.72,12.54.36S258.31,278.66,254.28,284.08Z" fill="#6562be"/><path d="M253.74,280.84s10-.58,11.51-5S255.08,274.21,253.74,280.84Z" fill="#6562be"/><path d="M248.72,284.73s-10-.6-12,3.61S246.61,291.15,248.72,284.73Z" fill="#6562be"/><path d="M253.2,285.65s2.72,9.65,7.35,10.16S260,285.53,253.2,285.65Z" fill="#6562be"/><path d="M249.84,279.75s-2.67-9.66-7.3-10.19S243.09,279.84,249.84,279.75Z" fill="#6562be"/><circle cx="251.18" cy="282.61" r="4.35" fill="#fe4877"/><path d="M265.31,337.39v7.25h-6.12v20.79a12.3,12.3,0,0,1-12.3,12.3h-9.57A12.3,12.3,0,0,1,225,365.43V344.64h-4.94v-7.25Z" fill="#fb9159"/></svg>