<svg id="Capa_1" data-name="Capa 1" xmlns="http://www.w3.org/2000/svg" viewBox="0 0 345.3 504.36"><title>Mesa de trabajo 79</title><path d="M276.58,89.37A34.94,34.94,0,0,0,222,60.49a34.93,34.93,0,0,0-53.81,41.61,34.94,34.94,0,0,0,39.07,51.65,34.93,34.93,0,1,0,57.16-37.9A34.83,34.83,0,0,0,276.58,89.37Z" fill="#fe4877"/><polygon points="255.26 309.12 240.56 301.77 239.82 301.4 237.95 300.33 223.77 292.22 228.9 274.57 241.22 280.23 253.88 277.08 255.44 279.96 245.41 282.23 265.81 293.08 264.49 295.83 249.02 286.98 247.52 289.59 264.01 298.46 263.41 300.26 246.36 291.62 244.87 294.24 261.98 302.17 259.7 304.21 243.35 296.88 242.16 298.98 256.58 306.37 255.26 309.12" fill="#fb9159"/><path d="M192.22,250.86l-25.57,13.42-22.28-51.85a14.19,14.19,0,0,1,7.51-18.6h0a14.18,14.18,0,0,1,18.6,7.5Z" fill="#fb9159"/><polygon points="235.09 277.61 230.02 295.89 172.2 267.93 186.49 243.43 235.09 277.61" fill="#fb9159"/><polygon points="167.73 319.41 226.01 432.03 246.3 421.88 205.27 303.17 167.73 319.41" fill="#fb9159"/><polygon points="99.75 347.81 64.69 411.74 78.89 427.97 134.88 361.64 145.21 308.07 107.62 302.43 99.75 347.81" fill="#fb9159"/><path d="M234.69,462.47l68-30.44h0c-3.44-8-14-6.82-22.32-4.06L254,432l-6.55-17.25-27.64,10.37Z" fill="#161730"/><path d="M234.69,462.47s6.09,11.16,10.15,6.08,5.07-9.13,9.13-9.13,14.2,0,15.22-5.07a9.34,9.34,0,0,1,11.16-7.1c5.07,1,10.14,1,11.16-5.08s10.14-3,11.16-4.06,0-6.08,0-6.08Z" fill="#fe4877"/><path d="M219.47,425.94s14.21,0,15.22,7.1,4.06,19.28,10.15,18.26,5.59,4.12,5.59,4.12l-15.74,7.05Z" fill="#ffcb39"/><rect x="248.24" y="437.23" width="10.45" height="0.75" transform="translate(-252.17 446.27) rotate(-60.9)" fill="#ffcb39"/><rect x="258.61" y="436.72" width="9.99" height="0.75" transform="translate(-242.88 500.46) rotate(-66.04)" fill="#ffcb39"/><path d="M64.24,401.59l-24.86,36L54.6,470.07l53.77-1s-5.07-13.19-18.26-12.18-18.26,1-18.26,1l2-19.28,11.66-14.71Z" fill="#161730"/><path d="M38.87,437.1s-7.1,7.1-2,9.13-2,5.07,1,7.1,6.09,0,5.07,3.05-2,8.11,1,8.11,3,2,3,6.09,2,8.12,8.12,5.07,2,0,7.1,1,5.07-2,9.13-3,1,5.07,7.1,3,7.1-5.07,9.13-4.06,0,3,6.09,2,4.06-4.06,7.1-3,3,5.07,6.09,3,1-6.09,1-6.09H54.09Z" fill="#fe4877"/><path d="M46.29,451.83s15.92-10.67,12.88-17.77,2-13.19,3-17.25,1-10.56-3-8.12L38.87,437.1Z" fill="#ffcb39"/><path d="M87.07,468.55h20.8a16.88,16.88,0,0,0-15.73-11.71S85.54,464.49,87.07,468.55Z" fill="#ffcb39"/><rect x="65.25" y="442.57" width="8.21" height="0.75" transform="translate(-26.43 4.95) rotate(-3.44)" fill="#ffcb39"/><rect x="63.71" y="448.95" width="9.11" height="0.75" transform="translate(-44.14 8.96) rotate(-5.68)" fill="#ffcb39"/><rect x="63.7" y="454.99" width="8.18" height="0.75" transform="translate(-56.39 12.04) rotate(-7.18)" fill="#ffcb39"/><path d="M34.23,470a12.29,12.29,0,0,1-1.49-.1c-15.31-2-16.51-7.18-16.56-7.4l.74-.15c0,.05,1.26,4.85,15.92,6.81S66.77,440.26,67,440l.64.39C66.83,441.59,49.22,470,34.23,470Z" fill="#ffcb39"/><path d="M236.66,375.71l-5.62,2-27.93,10-6,2.15c-3.25,1.16-8.46-12.28-9-14.19-.93-3.5-1.66-6.88-2.42-10.18-.06-.28-.12-.56-.19-.83-1.41-6.06-3-11.88-6.13-17.75-.12-.23-.24-.46-.37-.69l-.59-1c-4.13-7-10.18-13.14-13.68-20.45-1.8-3.76-2.13-5.69-2-8.19,0-.29,0-.59.05-.9.09-1.22.24-2.62.34-4.42.31-5.44.22-13.58-3.21-18.26-1.06,2.81-2.24,5.86-3.48,9-.2.51-.41,1-.62,1.55h0c-3.23,8.12-6.81,16.65-9.94,22.92a79.25,79.25,0,0,0-3.7,8.8c-.11.38-.2.74-.29,1.1s-.22.93-.31,1.39c-.06.25-.1.51-.15.76-1.36,7.82.16,15.91-2.21,23.64a25.21,25.21,0,0,1-1.7,4.16l-.38.72c-2.75,5-6.9,9.32-10.65,13.62-.26.3-.52.59-.77.89l-.06.07c-.9,1-11.82,19.13-13.26,17.9l-5.22-5.08L95.61,383.26h0c-1.46-1.43-2.94-2.87-4.4-4.28-1.92-1.88-3.81-3.71-5.56-5.43l-10.3-10c-1.85-1.6,5.2-9.83,8.93-14l.53-.59,1.55-1.72c6.85-7.88,11.15-13.07,13.35-23.79.15-.72.28-1.44.38-2.17,0-.25.08-.5.12-.76,1.14-8.32.07-16.87-.29-25.23l0-.76c-.36-9.22.25-18.19,5.73-26.33a33.75,33.75,0,0,1,3.22-4.07l31.78-3.48h0l30.72-3.38,5.84-.64,5.69-.62c2.15,1.84,4.25,3.76,6.26,5.76.75.76,1.49,1.52,2.22,2.3l.08.09.61.66.39.43c1.08,1.2,2.13,2.43,3.13,3.69a58,58,0,0,1,7.85,12.9c.12.26.23.53.33.79a45.53,45.53,0,0,1,2.13,6.45c1.48,5.92,2.22,12,3.48,18,1.34,6.31,4.46,9,8.65,13.21a64.9,64.9,0,0,1,9.68,13.49C234.78,346.08,240.24,361.43,236.66,375.71Z" fill="#161730"/><path d="M131.73,177.55c-.52.16-1,.33-1.5.53-9.79,3.95-14.91,20.2-17.78,31.13-1.62,6.18-13.26,59.47-13.26,59.47l92.32-7.11c1.13-.11-10.13-34.58-10.65-36.82C176.77,207,169.34,184,153.37,178.39,147.52,176.32,138.05,175.66,131.73,177.55Z" fill="#ffcb39"/><path d="M161,142.7V159a10.79,10.79,0,0,1-10.79,10.79l-.63.1v6.82c0,1,.41,2.23-.2,3.17a6.13,6.13,0,0,1-2.56,1.8c-2.62,1.15-8.47,1.11-8.47-3v-13.6L137,142.7Z" fill="#fb9159"/><path d="M160.39,147.55c1.55,0,5,10.06,5,10.06h-5Z" fill="#ff534a"/><circle cx="150.71" cy="156.45" r="3.87" fill="#ff534a"/><path d="M153.2,148.77a.67.67,0,0,1,.11-.14,1.57,1.57,0,0,1,.76-.32c1.22-.25,4.32-1,4.77.78.36,1.43-1.66,1.21-2.71,1.17S152.46,150.09,153.2,148.77Z" fill="#fff"/><path d="M156.83,147.94s-1.23.85,0,2.36c0,0,2.4.34,2-1.21A1.63,1.63,0,0,0,156.83,147.94Z" fill="#0c0604"/><path d="M152.26,148.32s6.58-.77,6.58-1.16.39-1.94-.78-1.94-7,1.94-6.58,2.33S151.48,147.93,152.26,148.32Z" fill="#161730"/><path d="M159,162.82a2.84,2.84,0,0,1-2.34-1.11l.59-.46c1.15,1.48,3.13.52,3.21.48l.34.67A4.22,4.22,0,0,1,159,162.82Z" fill="#161730"/><path d="M147.89,147.94s-.2,11.21-2.13,8.65-2.95-9.67-2.95-9.67l-4.52,1,.73,12s-11.43-9.88-6.35-20,14.2-11.16,20.29-9.13,14.2,7.1,14.2,14.21-20.29-1-20.29-1Z" fill="#6562be"/><circle cx="140.26" cy="150.91" r="4.45" fill="#fb9159"/><path d="M141.24,153.53l-.75-.08a2.49,2.49,0,0,0-.52-2.15,2.41,2.41,0,0,0-1.77-.54l-.09-.74a3.18,3.18,0,0,1,2.25.63,2,2,0,0,0,.07-1.34.58.58,0,0,0-.27-.31l.24-.71a1.26,1.26,0,0,1,.71.69,3.07,3.07,0,0,1-.19,2.35A3.7,3.7,0,0,1,141.24,153.53Z" fill="#0c0604"/><path d="M142.6,143.53s0,15.22,3.05,14.21,4.06-1,3-15.22S142.6,143.53,142.6,143.53Z" fill="#6562be"/><path d="M218.63,330.77c-1.85-1.39-3.6-2.76-5.25-4.13q-4.29-3.52-7.7-6.88l-.64-.63a78.76,78.76,0,0,1-6.37-7.06q-.39-.48-.75-1-1.47-1.92-2.56-3.66c-2.54-4.05-3.53-7.31-3-9.36a2.91,2.91,0,0,1,2.74-2.16l-.09-.74a3.62,3.62,0,0,0-3.37,2.71c-.59,2.22.4,5.64,3,9.86.6,1,1.3,2,2.09,3.09l.68.9a79.85,79.85,0,0,0,7.45,8.3l.59.58c2.46,2.38,5.25,4.85,8.38,7.37,1.38,1.11,2.82,2.24,4.33,3.37a62.44,62.44,0,0,1,9.06,7.75c.21.23.38.44.54.65h0a3.24,3.24,0,0,1,.95,2.43c-.14.65-.82,1.16-1.87,1.59h0a8.18,8.18,0,0,1-.84.32c-1.31.43-3,.82-4.88,1.24l-1.18.27h0a68.18,68.18,0,0,0-10.17,3,50.86,50.86,0,0,0-6.34-6.66,68,68,0,0,1-7.8-8.05,6.52,6.52,0,0,1-.48-.59,65.46,65.46,0,0,1-11.33-20.86h0c-.19-.56-.36-1.1-.52-1.67-.08-.24-.15-.49-.21-.74a64.31,64.31,0,0,1-2.42-19.65c0-.41,0-.81.05-1.22,0-.06,0-.11,0-.17a97.23,97.23,0,0,1,1.69-14.44c.05-.27.1-.53.16-.78a38.54,38.54,0,0,1,2-6.76c0-.09.07-.17.11-.25h0c.17-.4.33-.73.47-1a6.86,6.86,0,0,1,.54-.91l-.59-.47a9,9,0,0,0-1,1.82c-.09.2-.19.41-.28.65s-.1.24-.15.37a39.55,39.55,0,0,0-1.84,6.33c-.06.25-.12.51-.17.78A98.74,98.74,0,0,0,180,288c0,.3,0,.61-.05.92,0,.14,0,.28,0,.42h0a65.51,65.51,0,0,0,2.35,20.7c.07.24.14.49.22.73.18.65.38,1.29.6,1.93a66.09,66.09,0,0,0,11.47,21.08q.22.3.48.6a68.89,68.89,0,0,0,7.86,8.09,51,51,0,0,1,6.09,6.4,38.81,38.81,0,0,0-6.05,3.15c-7.26,4.7-10.66,9.17-10.1,13.28a7.07,7.07,0,0,0,.62,2.06,8.63,8.63,0,0,0,.63,1.08,17,17,0,0,0,6.32,5.12c.29.16.6.31.91.46s.94.46,1.45.67q.36.18.75.33a59.44,59.44,0,0,0,5.6,2,13.22,13.22,0,0,0,3.92.68,5.54,5.54,0,0,0,4.61-2,6.13,6.13,0,0,0,.52-.77c2.71-4.85-.38-16-8-25.78a70.17,70.17,0,0,1,9.93-2.89l1.1-.25c1.74-.4,3.27-.74,4.52-1.12.29-.08.58-.18.84-.27,1.6-.58,2.59-1.27,2.82-2.33C229.93,340.22,226.89,337,218.63,330.77Zm-1.08,43.88c-1.34,2.38-4.16,3-8.17,1.72a57.28,57.28,0,0,1-5.82-2.14c-.26-.1-.51-.21-.75-.32-.63-.29-1.22-.58-1.78-.87s-.89-.48-1.31-.72a18.29,18.29,0,0,1-3.95-3,9,9,0,0,1-1.09-1.38h0a6.42,6.42,0,0,1-1-2.68c-.52-3.8,2.76-8,9.76-12.55a36.68,36.68,0,0,1,6.12-3.16C216.85,359,220.15,370,217.55,374.65Z" fill="#fff"/><path d="M182.58,273.77l-.73-.22c-1.18-.35-2.5-.67-4-1l-.78-.14a85,85,0,0,0-20.59-.6c-3.56.26-6.94.46-10.22.64-14.51.83-25,1.43-28,6.88-1.6,2.89-1,6.87,2,12.47a40.74,40.74,0,0,0-5.34.3c-3.12.36-8.89,1.12-15,2.37l0,.76c4.82-1,10-1.8,15-2.38a42.44,42.44,0,0,1,5-.31h.68l.06.11a37.25,37.25,0,0,0,3.82,5.58c.14.18.29.36.44.53a72.34,72.34,0,0,0,6.27,6.47c-.09.21-.19.43-.3.64-2.77,5.64-9.39,12.49-20.23,18.74l-.14.08c-2.16-.88-4.28-1.74-6.33-2.59l-.77-.32-.7-.29-2.53-1c0,.26-.07.51-.12.76l2.26.94.7.28,1,.43,5.65,2.31c-3.46,2.11-5.83,4.21-7.15,6.35h0a7.88,7.88,0,0,0-1.24,3.95,6.89,6.89,0,0,0,.23,1.91v0c.71,2.92,3.15,5.71,6.52,8.48-1.08.84-2.12,1.7-3.1,2.57l-.57.51a57.73,57.73,0,0,0-5,5.09c-.18.21-.36.41-.53.62-6.72,8-9.61,16.39-8.4,22.11a9.86,9.86,0,0,0,.7,2.13,8.44,8.44,0,0,0,4.4,4.28h0a13.39,13.39,0,0,0,5.41,1,17.47,17.47,0,0,0,1.75-.08l.4,0c4.67-.41,9.39-.82,13.82-1.34,3.07-.35,6-.76,8.71-1.24.25-.3.51-.59.77-.89-2.69.51-5.65.94-8.78,1.3-4.65.56-9.64,1-14.59,1.42l-.39,0c-6.38.55-10.43-1.86-11.47-6.78-1.18-5.61,1.72-13.83,8.43-21.76.18-.21.35-.42.53-.62a55.77,55.77,0,0,1,4.59-4.66l.57-.51q1.56-1.38,3.29-2.72a138.18,138.18,0,0,0,11.52,7.88,130.49,130.49,0,0,1,13.17,9.17q1.41,1.17,2.61,2.37c.42.42.82.84,1.17,1.25l.38-.72c-.32-.35-.65-.7-1-1.06-.82-.81-1.71-1.62-2.66-2.41a131.28,131.28,0,0,0-13.26-9.23c-4.09-2.62-8.08-5.17-11.31-7.71a71.84,71.84,0,0,1,20-10.47c1-.34,1.95-.68,2.86-1,2.53,1.08,5,2.16,7.4,3.23l1.91.87c.05-.25.09-.51.15-.76-.62-.29-1.26-.57-1.91-.86-2.07-.93-4.26-1.88-6.55-2.86a52.27,52.27,0,0,0,7.81-3.67c3.58-2.14,5.52-4.31,6-6.62.52-2.58-.84-5.16-3.19-7.87a82.14,82.14,0,0,0-7.49-7.14c-.91-.81-1.85-1.63-2.79-2.48l-1.27-1.16a10.32,10.32,0,0,0,.63-7.19,7.08,7.08,0,0,0-2.09-3.14,6.65,6.65,0,0,0-.59-.46c-2.06-1.51-5.11-2.35-9-2.49-2.93-5.48-3.64-9.45-2.16-12.13,2.82-5.09,13.66-5.7,27.4-6.49,3.27-.18,6.66-.38,10.23-.64a83.62,83.62,0,0,1,20.21.59l.76.14a37.8,37.8,0,0,1,4.17,1l.74.22c5.5,1.78,7.24,3.95,7.27,4l.6-.45C190.16,277.91,188.33,275.6,182.58,273.77Zm-53.58,61a72.24,72.24,0,0,0-20.33,10.69c-4-3.27-6.68-6.53-6.6-9.92s2.86-6.63,8.52-10l1.65.68c6,2.42,12.51,5.09,18.85,7.78Zm6.72-25.44a76.09,76.09,0,0,1,7.8,7.52c2,2.38,3.07,4.62,2.64,6.78-.4,2-2,3.9-5.06,5.8h0a51.42,51.42,0,0,1-9,4.22c-5.9-2.52-12.49-5.22-19.58-8.11l-1.12-.45c10.12-5.91,17.41-12.89,20.33-19.05l.09-.18.25.23C133.31,307.22,134.53,308.29,135.72,309.34Zm-6.3-14.56a5.3,5.3,0,0,1,.6.46,6.44,6.44,0,0,1,2,2.95,9.5,9.5,0,0,1-.57,6.36,71.25,71.25,0,0,1-6-6.19l-.44-.54a36.29,36.29,0,0,1-3.6-5.2A15.43,15.43,0,0,1,129.42,294.78Z" fill="#fff"/><path d="M205.63,316.74c-.71-2.64-3.29-4.52-7.71-5.63-.37-.09-.76-.18-1.17-.26a47.31,47.31,0,0,0-7.3-.84h0l-.76,0c-1.93-.07-3.8-.05-5.59,0l-.78.05a44.14,44.14,0,0,0-19.54,5.63c0,.31,0,.61-.05.9a43.2,43.2,0,0,1,19.81-5.8l.77,0q2.19-.12,4.53-.06l.82,0a45.82,45.82,0,0,1,8.78,1c.43.1.85.21,1.24.32,3.56,1,5.65,2.67,6.24,4.86a5.54,5.54,0,0,1,.13,2.2,7.72,7.72,0,0,1-.16.92c-.94,3.92-4.85,8.66-9.73,13.26l-.55.51a152.92,152.92,0,0,1-13.67,11.09c-.65.48-1.29.93-1.9,1.37.13.23.25.46.37.69.61-.43,1.24-.88,1.89-1.36a149.21,149.21,0,0,0,13.79-11.19l.55-.52c4.79-4.53,8.69-9.23,9.84-13.27a7.31,7.31,0,0,0,.21-.87A6.66,6.66,0,0,0,205.63,316.74Zm-4.26,57.37s0,0,0-.05a4,4,0,0,0-.33-1c-.82-1.81-3-3.53-6.35-5.12h0c-.38-.18-.76-.35-1.17-.52s-.77-.33-1.18-.49a65.79,65.79,0,0,0-6.79-2.19c.07.27.13.55.19.83a62.33,62.33,0,0,1,7.12,2.37c.45.18.88.37,1.29.56.58.27,1.13.54,1.64.82a12.63,12.63,0,0,1,3.95,3,4.51,4.51,0,0,1,.73,1.28,3,3,0,0,1,.18.63c.24,1.42-.53,2.9-2.26,4.38a21.85,21.85,0,0,1-4.49,2.86l.34.67a23.07,23.07,0,0,0,4.51-2.83C200.78,377.6,201.67,375.86,201.37,374.11Zm-45.5-77.57c-.49-4.72-2.61-7.54-6.31-8.38-5-1.13-12.08,1.51-19.46,6.19-.22.15-.45.29-.68.43-1.44,1-2.89,2-4.33,3l-.6.46c-2.31,1.74-4.6,3.65-6.8,5.66a90.38,90.38,0,0,0-12.82,14.34c-.73,1-1.42,2.08-2.05,3.11l-.09.15q-.21.33-.39.66c-5.38,9.11-6.1,16.47-2.09,21.29l.21.25A52.93,52.93,0,0,1,104.4,349c.15.22.28.42.39.62,1.6,2.67,1.62,3.92,1.19,4.5-.68.92-2.77.87-5.78.16-.25-.05-.51-.12-.77-.19-.84-.21-1.75-.47-2.71-.77-3.43-1.06-7.54-2.62-11.92-4.4l-.53.59C89,351.43,93,353,96.36,354c.9.28,1.75.53,2.54.73.27.07.52.14.77.19,3.65.88,6,.86,6.91-.33.77-1,.39-2.81-1.22-5.46-.12-.2-.25-.41-.39-.62a55.82,55.82,0,0,0-4.14-5.5c-.07-.09-.14-.17-.2-.26-4.47-5.71-1.29-14,2.41-20.27l.39-.65,0-.05c.35-.57.72-1.14,1.1-1.72h0a88.23,88.23,0,0,1,14-16c2.06-1.87,4.18-3.63,6.32-5.27l.6-.45c1.5-1.11,3-2.16,4.49-3.12l.67-.43c7.12-4.49,13.95-7,18.71-5.92,3.35.76,5.27,3.36,5.72,7.72.25,2.41.48,4.74.68,7,.21-.52.42-1,.62-1.55C156.25,300.25,156.06,298.42,155.87,296.54Z" fill="#fff"/><path d="M191.45,264.14a.18.18,0,0,0-.1,0,29.07,29.07,0,0,0-6.17,1.6,11.2,11.2,0,0,0-1.06.44c-.36.15-.7.32-1,.49h0l-.09.05a13,13,0,0,0-5.7,5.28c-.08.14-.15.28-.22.43s-.22.49-.32.74c-1.61,4.13-.68,9.32,2.77,15.45.14.25.29.5.44.73h0c.23.36.47.69.71,1a7.67,7.67,0,0,0,6.2,3.2h.21c5.48-.13,11.81-5.61,16.68-11-.1-.26-.21-.53-.33-.79-4.8,5.34-11.08,10.88-16.37,11h-.18c-2.47,0-4.53-1.23-6.16-3.67a8.69,8.69,0,0,1-.55-.88L180,288c-3.26-5.89-4.11-10.83-2.52-14.7.1-.25.22-.5.34-.74l.11-.21a12.56,12.56,0,0,1,5.73-5.16l.56-.26,0,0a3.25,3.25,0,0,1,.43-.18h0a25.79,25.79,0,0,1,4.71-1.48h0c.48-.1,1-.2,1.47-.28h0l.28-.05.87-.14Z" fill="#fff"/><path d="M286.78,425.8s-2.2,12.9,0,13.21,17.42-7.8,17.42-7.8S301.83,422.43,286.78,425.8Z" fill="#ffcb39"/><polygon points="254.35 278.02 258.4 283.87 253.24 285.2 248.25 278.82 254.35 278.02" fill="#fb9159"/><path d="M174.27,236.6l-21.54,19.23-34.21-44.89a14.19,14.19,0,0,1,2.76-19.87h0a14.19,14.19,0,0,1,19.87,2.77Z" fill="#fb9159"/><polygon points="165.67 179.98 165.97 161.26 167.84 160.97 168 180.08 171 180.21 170.2 161.36 173.05 162.45 174.05 180.34 176.47 180.44 176.47 179.15 176.44 175.19 176.44 174.22 176.4 164.23 179.45 164.13 179.56 171.71 179.57 172.71 179.61 175.47 179.33 199.59 180.91 257.93 152.58 256.5 160.61 197.65 160.61 197.63 160.24 189.85 149.8 177.97 150.89 175.12 160.08 185.28 160.36 162.14 163.4 162.04 162.66 179.86 165.67 179.98" fill="#fb9159"/><path d="M248.66,96.14a28,28,0,0,1-11.4,22.57v17.35H204V118.71a28,28,0,1,1,44.68-22.57Z" fill="#ffcb39"/><rect x="202.44" y="132.14" width="36.71" height="9.98" fill="#6562be"/><path d="M216.67,143.54h8.26a8.17,8.17,0,0,1,8.17,8.17v1.81a0,0,0,0,1,0,0H208.5a0,0,0,0,1,0,0v-1.81A8.17,8.17,0,0,1,216.67,143.54Z" transform="translate(441.6 297.07) rotate(180)" fill="#6562be"/><circle cx="206.01" cy="163.86" r="4.28" fill="#fe4877"/><circle cx="189.61" cy="175.98" r="1.78" fill="#fe4877"/><circle cx="197.81" cy="171.7" r="2.5" fill="#fe4877"/></svg>